<?xml version="1.0" standalone="no"?>
<!DOCTYPE svg PUBLIC "-//W3C//DTD SVG 20010904//EN"
 "http://www.w3.org/TR/2001/REC-SVG-20010904/DTD/svg10.dtd">
<svg version="1.0" xmlns="http://www.w3.org/2000/svg"
 width="281.000000pt" height="284.000000pt" viewBox="0 0 281.000000 284.000000"
 preserveAspectRatio="xMidYMid meet">

<g transform="translate(0.000000,284.000000) scale(0.100000,-0.100000)"
fill="#000000" stroke="none">
<path d="M1235 2813 c-527 -68 -967 -425 -1144 -926 -56 -161 -75 -272 -74
-457 0 -237 41 -416 140 -615 195 -390 545 -660 973 -752 134 -28 430 -26 570
5 183 41 314 98 481 211 355 237 563 587 610 1026 42 396 -112 815 -407 1109
-208 209 -473 345 -760 390 -92 15 -308 20 -389 9z m-104 -603 l67 -68 58 21
c114 39 400 33 490 -9 l33 -16 56 61 c57 61 158 122 174 105 30 -34 42 -182
19 -256 -10 -36 -9 -40 15 -66 62 -65 93 -202 85 -384 -4 -82 -11 -128 -27
-168 -56 -146 -191 -248 -372 -282 l-57 -11 22 -46 c19 -42 21 -66 24 -294 l3
-247 -232 2 -232 3 2 114 2 114 -61 -7 c-117 -13 -242 31 -305 109 -18 22 -50
74 -71 115 -22 42 -62 97 -92 127 -29 30 -50 58 -46 64 8 14 84 5 122 -15 16
-8 44 -33 63 -55 91 -109 116 -134 151 -152 51 -26 143 -34 192 -17 37 12 40
16 51 68 6 30 19 69 28 86 l16 32 -42 6 c-118 18 -250 85 -316 161 -19 22 -48
69 -65 105 -31 65 -31 66 -31 235 0 192 11 243 72 328 18 26 31 52 28 57 -16
27 -24 129 -14 185 17 94 20 97 77 78 34 -12 66 -35 113 -83z"/>
</g>
</svg>
