<?xml version="1.0" standalone="no"?>
<!DOCTYPE svg PUBLIC "-//W3C//DTD SVG 20010904//EN"
 "http://www.w3.org/TR/2001/REC-SVG-20010904/DTD/svg10.dtd">
<svg version="1.0" xmlns="http://www.w3.org/2000/svg"
 width="500.000000pt" height="500.000000pt" viewBox="0 0 500.000000 500.000000"
 preserveAspectRatio="xMidYMid meet">

<g transform="translate(0.000000,500.000000) scale(0.100000,-0.100000)"
fill="#000000" stroke="none">
<path d="M2355 4489 c-120 -8 -305 -37 -305 -48 0 -3 27 -7 60 -8 37 -1 58 2
54 9 -3 5 -13 7 -22 3 -9 -3 -13 -2 -8 2 7 7 47 12 138 16 46 1 59 -10 34 -29
-24 -17 -28 -16 121 -18 66 -1 109 2 106 8 -4 5 0 6 7 1 21 -13 114 -6 125 10
6 7 22 15 35 18 l25 4 -25 1 c-14 1 -31 -2 -39 -7 -7 -5 -22 -6 -32 -4 -19 5
-19 6 -2 19 10 7 23 13 28 14 6 0 4 -4 -4 -9 -8 -5 16 -8 60 -6 42 2 63 0 49
-4 l-25 -7 27 -6 c17 -3 29 0 32 8 8 20 -6 24 -91 29 -179 11 -234 11 -348 4z
m205 -19 c0 -5 -8 -11 -17 -14 -10 -2 0 -3 22 0 38 4 39 3 10 -6 -16 -6 -46
-10 -65 -9 -72 2 -101 -1 -95 -11 3 -5 2 -10 -3 -10 -5 0 -12 8 -14 18 -4 15
0 18 21 16 l26 -4 -25 9 c-14 5 -33 9 -44 10 -15 1 -16 -2 -7 -13 9 -11 6 -13
-16 -13 -16 0 -22 2 -14 5 9 3 4 9 -15 17 -26 12 -20 13 59 12 48 -1 87 0 87
3 0 3 20 4 45 2 25 -2 45 -8 45 -12z m43 3 c-7 -2 -19 -2 -25 0 -7 3 -2 5 12
5 14 0 19 -2 13 -5z m30 -40 c-7 -2 -19 -2 -25 0 -7 3 -2 5 12 5 14 0 19 -2
13 -5z"/>
<path d="M2807 4464 c-10 -11 3 -24 24 -24 10 0 19 -6 20 -12 0 -7 4 -4 8 7 7
17 8 17 15 -8 5 -23 12 -27 41 -27 19 0 35 5 35 10 0 6 -16 10 -36 10 -30 0
-34 3 -29 19 4 14 0 20 -17 25 -30 8 -53 8 -61 0z"/>
<path d="M2235 4450 c-3 -6 1 -7 9 -4 18 7 21 14 7 14 -6 0 -13 -4 -16 -10z"/>
<path d="M2700 4434 l-25 -13 28 -1 c15 0 27 -4 27 -10 0 -6 -33 -10 -80 -10
-44 0 -80 -4 -80 -9 0 -4 11 -6 23 -4 13 3 30 -2 38 -10 8 -8 29 -16 47 -19
17 -2 30 -2 27 0 -3 3 3 10 12 17 16 12 63 9 63 -5 0 -4 17 -7 38 -8 32 0 34
1 14 9 -13 5 -27 7 -32 4 -4 -3 -13 2 -20 10 -11 13 -9 15 6 13 11 -2 19 2 19
7 0 6 -10 10 -22 10 -13 -1 -23 3 -23 7 0 18 -36 26 -60 12z"/>
<path d="M2910 4441 c8 -5 17 -8 21 -5 4 2 12 -3 19 -11 7 -9 23 -12 43 -10
32 5 32 5 -3 -6 -31 -10 -33 -12 -15 -20 17 -6 16 -8 -10 -10 -16 -1 -38 -1
-48 -1 -10 1 -16 -2 -12 -7 3 -5 -3 -12 -12 -15 -10 -2 0 -2 22 1 22 4 69 6
103 6 58 0 62 2 40 13 -12 7 -30 13 -38 13 -10 0 -8 -3 5 -10 19 -8 19 -9 1
-6 -11 1 -21 8 -24 16 -4 11 2 12 24 6 16 -4 44 -8 63 -10 19 -1 38 -9 43 -19
6 -11 19 -15 44 -12 33 4 47 -7 22 -17 -7 -3 -8 -6 -3 -6 15 -1 40 17 33 24
-14 15 -149 54 -165 48 -11 -4 -14 -3 -9 6 5 8 3 11 -5 10 -8 -1 -25 2 -39 8
-36 15 -119 27 -100 14z m257 -77 c-3 -3 -12 -4 -19 -1 -8 3 -5 6 6 6 11 1 17
-2 13 -5z"/>
<path d="M1990 4433 c-8 -3 -26 -10 -40 -16 -14 -6 -31 -9 -37 -8 -7 1 -13 -3
-13 -9 0 -6 -4 -9 -8 -6 -11 7 -82 -15 -82 -25 0 -5 -6 -6 -14 -3 -7 3 -20 -2
-29 -10 -8 -8 -17 -13 -20 -10 -7 7 -57 -18 -57 -28 0 -5 -4 -6 -10 -3 -5 3
-10 3 -10 -2 0 -4 20 -8 44 -8 27 0 42 4 39 11 -5 13 87 62 105 56 7 -2 10 -8
6 -13 -3 -5 -1 -9 5 -9 17 0 24 22 10 32 -10 7 -8 8 8 3 14 -4 42 3 75 18 29
14 60 27 68 30 10 4 9 5 -5 5 -11 0 -27 -2 -35 -5z m-250 -103 c0 -5 -8 -10
-17 -10 -15 0 -16 2 -3 10 19 12 20 12 20 0z"/>
<path d="M2067 4410 c-17 -20 -67 -28 -67 -11 0 5 -11 4 -24 -2 -17 -8 -21
-14 -13 -20 7 -5 1 -6 -15 -3 -15 3 -30 2 -33 -4 -12 -19 25 -22 59 -6 41 19
52 20 37 3 -8 -11 -5 -13 19 -9 17 2 32 12 35 23 4 10 13 19 21 19 14 0 22 -3
82 -33 42 -21 62 -22 62 -2 0 8 -4 15 -10 15 -5 0 -10 6 -10 13 0 8 -14 11
-45 9 -30 -3 -45 0 -45 8 0 6 -4 8 -10 5 -5 -3 -10 -1 -10 4 0 17 -14 13 -33
-9z"/>
<path d="M2230 4407 c9 -7 14 -21 12 -32 -3 -18 -3 -19 10 -3 7 9 22 18 33 21
15 4 14 5 -7 6 -15 0 -30 6 -33 11 -3 6 -12 10 -18 10 -8 -1 -6 -5 3 -13z"/>
<path d="M2270 4372 c-5 -2 -10 -8 -10 -13 0 -5 34 -9 76 -9 56 0 75 3 71 13
-3 11 -109 18 -137 9z"/>
<path d="M2417 4364 c5 -13 7 -13 14 -2 7 10 9 10 9 -2 0 -13 1 -13 10 0 9 13
10 13 10 0 0 -13 1 -13 10 0 9 13 10 13 10 0 0 -13 1 -13 10 0 9 13 10 13 10
0 0 -13 1 -13 10 0 9 13 10 13 10 0 0 -13 1 -13 10 0 7 11 10 11 10 2 0 -7 5
-10 10 -7 24 15 -6 25 -70 25 -59 0 -68 -2 -63 -16z"/>
<path d="M3240 4341 c0 -6 6 -11 13 -11 7 0 29 -9 50 -20 41 -22 47 -24 47
-11 0 4 -21 17 -47 27 -27 11 -51 21 -55 22 -5 2 -8 -1 -8 -7z"/>
<path d="M3206 4311 c-3 -5 3 -11 13 -14 14 -3 18 -1 14 9 -6 16 -19 18 -27 5z"/>
<path d="M3245 4310 c3 -5 10 -10 16 -10 5 0 9 5 9 10 0 6 -7 10 -16 10 -8 0
-12 -4 -9 -10z"/>
<path d="M1593 4282 c-31 -17 -50 -32 -47 -40 3 -9 -2 -11 -17 -7 -16 6 -20 3
-17 -11 1 -9 9 -19 16 -20 7 -1 8 0 2 3 -18 9 -11 19 14 18 28 0 49 -15 22
-15 -9 0 -14 -4 -11 -10 3 -5 15 -10 25 -10 26 0 19 29 -11 47 -15 9 -17 12
-5 9 11 -4 24 0 32 11 13 17 14 17 8 1 -4 -13 -1 -18 11 -18 15 0 15 -3 5 -15
-7 -9 -10 -18 -6 -22 3 -3 6 -1 6 5 0 18 58 14 68 -4 10 -19 74 -16 78 4 1 7
0 8 -2 3 -3 -5 -16 -4 -31 4 -15 8 -30 12 -35 9 -4 -3 -5 2 -2 10 7 17 -35 32
-61 22 -20 -7 -20 18 0 34 10 9 15 9 15 1 0 -6 5 -11 11 -11 13 0 7 23 -7 26
-5 1 -32 -10 -61 -24z"/>
<path d="M3265 4293 c-16 -13 -17 -14 -3 -10 14 5 17 1 16 -18 -1 -13 -5 -23
-8 -22 -3 0 -23 -8 -45 -20 -32 -17 -36 -23 -23 -28 24 -9 54 -1 50 14 -2 9 3
9 17 1 29 -15 38 -12 15 6 -18 15 -18 15 9 11 23 -4 27 -1 23 12 -4 11 -2 10
9 -3 15 -19 15 -19 15 5 0 48 -43 77 -75 52z"/>
<path d="M1697 4293 c-30 -8 -13 -27 26 -31 27 -2 37 0 37 11 0 8 -7 18 -16
21 -17 6 -19 6 -47 -1z"/>
<path d="M3364 4278 c2 -13 -1 -29 -6 -35 -16 -21 8 -41 45 -38 18 1 38 -2 44
-8 7 -5 24 -6 38 -3 31 8 39 5 42 -13 2 -19 24 -32 46 -27 9 2 17 0 17 -5 0
-5 -8 -9 -17 -10 -10 0 -13 -3 -6 -5 7 -3 22 0 35 7 19 9 21 9 11 -2 -20 -20
-15 -31 7 -19 11 6 18 15 15 20 -7 11 -119 75 -124 71 -2 -1 -8 4 -13 13 -5 9
-15 13 -25 9 -12 -5 -14 -3 -8 7 5 8 4 11 -3 6 -5 -3 -12 -3 -14 1 -1 5 -22
18 -46 31 l-42 23 4 -23z m90 -47 c17 -19 16 -19 -26 -16 -67 4 -68 4 -63 18
9 20 70 19 89 -2z m110 -56 c11 -9 14 -15 7 -15 -7 0 -19 7 -27 15 -20 19 -5
19 20 0z"/>
<path d="M3395 4230 c-7 -12 2 -12 30 0 19 8 19 9 -2 9 -12 1 -25 -3 -28 -9z"/>
<path d="M3193 4274 c0 -8 4 -14 9 -14 4 0 11 0 16 0 14 0 7 23 -9 25 -9 2
-16 -4 -16 -11z"/>
<path d="M1470 4212 c-14 -9 -27 -19 -30 -22 -3 -3 -17 -11 -32 -19 -15 -8
-30 -22 -34 -33 -3 -10 -10 -18 -15 -18 -6 0 -7 5 -3 12 4 6 -29 -16 -74 -50
-92 -71 -252 -223 -252 -241 0 -7 -4 -9 -10 -6 -6 4 -7 -1 -3 -11 5 -13 3 -15
-7 -9 -9 5 -11 4 -6 -3 4 -7 1 -12 -7 -12 -8 0 -42 -35 -75 -79 -45 -58 -58
-81 -50 -89 9 -9 8 -16 -3 -29 -16 -18 -15 -53 1 -53 4 0 6 10 3 23 l-5 22 21
-24 c13 -14 27 -21 37 -17 14 5 13 8 -5 24 -21 17 -44 76 -34 86 3 3 12 -1 20
-9 8 -8 24 -15 36 -15 12 0 18 -4 12 -8 -16 -11 -19 -55 -3 -50 9 3 13 26 13
76 1 57 -2 69 -12 60 -7 -6 -13 -17 -13 -26 0 -8 -2 -13 -5 -10 -4 3 -3 17 1
32 4 18 13 26 28 26 23 0 46 17 46 35 0 5 -7 2 -14 -8 -8 -11 -17 -14 -20 -8
-4 5 4 17 16 26 22 15 23 15 26 -10 3 -24 -19 -59 -32 -50 -3 3 -4 2 -1 -2 8
-11 55 -12 55 -2 0 6 -5 7 -11 3 -7 -4 -10 -1 -7 7 3 8 11 13 17 11 6 -1 11 3
11 9 0 5 5 7 10 4 6 -3 10 -2 10 4 0 5 8 8 18 6 9 -2 22 -4 27 -5 6 0 -2 -8
-17 -16 -16 -8 -28 -19 -28 -24 0 -17 25 -11 43 11 17 19 17 22 3 38 -20 22
-21 45 -1 37 23 -8 18 6 -12 34 -18 17 -28 21 -30 13 -3 -7 -8 -13 -13 -13 -4
0 -3 11 3 25 11 23 13 23 24 8 7 -9 16 -13 20 -10 3 4 -2 14 -13 22 -16 13
-16 14 -1 9 15 -5 19 0 16 23 -1 10 32 26 39 18 4 -4 1 -10 -5 -12 -7 -3 -13
-11 -13 -19 0 -8 -3 -14 -7 -14 -5 0 -9 -11 -9 -26 -2 -23 -1 -24 12 -7 7 10
14 23 14 30 0 16 18 26 32 17 8 -5 6 -10 -7 -14 -18 -6 -17 -7 3 -12 12 -4 20
-3 17 2 -3 4 6 11 19 14 24 6 41 41 25 52 -5 3 -9 1 -9 -5 0 -6 -7 -8 -15 -5
-12 5 -14 29 -5 54 2 3 2 7 2 10 0 3 11 14 26 24 14 11 22 14 18 8 -3 -6 -1
-14 5 -18 8 -5 10 -1 7 14 -6 21 7 32 40 32 19 0 73 39 55 40 -6 0 -15 -4 -18
-10 -3 -5 -14 -10 -23 -10 -13 0 -13 2 4 14 13 10 33 13 63 9 38 -5 43 -4 38
10 -3 9 -2 19 3 22 6 4 10 1 10 -4 0 -6 5 -11 11 -11 6 0 7 5 2 13 -16 25 1
56 34 61 9 2 17 10 19 19 1 9 2 17 1 16 -1 0 -13 -8 -27 -17z m-54 -67 c-25
-19 -41 -19 -24 0 7 8 20 14 28 14 11 0 10 -3 -4 -14z m-225 -158 c-6 -8 -7
-18 -3 -22 4 -5 1 -5 -5 -1 -8 4 -13 1 -13 -7 0 -8 7 -17 15 -21 18 -7 20 -26
3 -26 -7 0 -18 12 -25 26 -11 23 -10 29 10 45 26 22 34 24 18 6z m-101 -168
c0 -5 -7 -12 -15 -15 -8 -3 -17 -14 -20 -25 -4 -10 -10 -19 -15 -19 -11 0 -19
47 -9 57 11 11 59 13 59 2z m-149 -154 c5 4 9 1 9 -4 0 -6 -6 -11 -14 -11 -17
0 -38 24 -29 34 4 3 11 0 16 -9 4 -8 12 -13 18 -10z"/>
<path d="M3510 4150 c0 -5 7 -10 16 -10 8 0 12 5 9 10 -3 6 -10 10 -16 10 -5
0 -9 -4 -9 -10z"/>
<path d="M3520 4126 c0 -2 9 -6 20 -9 11 -3 18 -1 14 4 -5 9 -34 13 -34 5z"/>
<path d="M3637 4124 c-3 -3 -3 -12 0 -20 3 -9 -2 -14 -16 -14 -12 0 -21 -6
-21 -14 0 -8 -11 -17 -25 -20 -14 -4 -25 -11 -25 -16 0 -17 32 -11 46 8 8 10
13 12 14 5 0 -7 8 -13 17 -13 15 0 14 2 -3 15 -18 14 -17 15 10 9 24 -6 28 -4
23 9 -5 13 -2 15 17 7 13 -5 27 -6 30 -3 10 10 -4 23 -25 23 -10 0 -19 7 -19
15 0 15 -12 20 -23 9z"/>
<path d="M1433 4093 c-17 -6 -17 -33 0 -33 7 0 13 9 14 20 1 11 1 20 0 19 -1
0 -8 -3 -14 -6z"/>
<path d="M3516 4065 c4 -8 10 -12 15 -9 14 8 10 24 -6 24 -9 0 -12 -6 -9 -15z"/>
<path d="M3716 4064 c-9 -23 -8 -24 11 -17 11 4 14 3 9 -6 -4 -6 -4 -11 1 -10
27 5 32 -2 16 -21 -21 -24 -36 -25 -57 -4 -18 17 -18 17 -21 -13 -1 -12 1 -21
5 -18 3 2 13 -5 20 -16 8 -10 22 -19 31 -19 12 0 16 -6 12 -21 -5 -16 -12 -20
-34 -17 -24 4 -27 2 -18 -14 12 -21 41 -20 50 2 3 8 12 15 20 15 7 0 15 9 17
20 2 11 1 17 -3 13 -10 -10 -35 10 -35 28 0 8 7 14 16 14 9 0 12 -5 8 -12 -4
-7 -3 -8 4 -4 9 5 9 13 2 26 -11 20 3 39 15 20 3 -5 3 -10 -1 -10 -3 0 -2 -6
3 -12 5 -7 9 -20 8 -28 0 -8 10 -26 22 -40 13 -14 23 -28 23 -32 0 -5 4 -8 8
-8 5 0 9 7 9 15 0 8 -3 12 -7 10 -8 -5 -6 27 3 42 4 6 -21 36 -62 72 -54 48
-70 58 -75 45z m119 -104 c-3 -5 -13 -6 -21 -3 -12 4 -13 8 -3 14 15 9 32 2
24 -11z"/>
<path d="M1321 4056 c-15 -9 -20 -16 -12 -20 6 -4 18 0 27 8 21 21 30 20 13
-1 -13 -15 -11 -16 20 -10 55 11 56 20 6 30 -16 3 -41 0 -54 -7z"/>
<path d="M3655 4040 c-3 -6 1 -7 9 -4 18 7 21 14 7 14 -6 0 -13 -4 -16 -10z"/>
<path d="M1220 4004 c0 -12 51 -35 61 -28 13 8 11 21 -3 22 -7 0 -23 4 -35 7
-13 4 -23 3 -23 -1z"/>
<path d="M1220 3973 c8 -3 18 -11 22 -17 4 -6 10 -7 15 -3 9 10 -16 27 -37 26
-13 -1 -13 -1 0 -6z"/>
<path d="M3866 3919 c10 -11 13 -19 8 -19 -6 0 -10 -9 -11 -20 -1 -11 3 -20 8
-20 6 0 7 -4 4 -10 -3 -5 -1 -10 5 -10 6 0 8 -4 5 -10 -3 -5 2 -10 12 -10 10
0 25 -9 33 -19 7 -11 18 -17 24 -14 6 4 5 -1 -2 -10 -16 -19 -8 -37 17 -37 9
0 23 -6 30 -12 11 -11 12 -8 6 12 -5 19 -4 22 4 10 9 -12 12 -13 20 -1 6 10
10 10 16 1 4 -6 0 -19 -9 -29 -9 -10 -16 -25 -16 -34 0 -10 -5 -14 -15 -11 -8
4 -15 1 -15 -5 0 -11 13 -15 38 -12 6 1 12 -3 12 -9 0 -5 -4 -10 -10 -10 -5 0
-10 -11 -10 -25 0 -24 1 -24 19 -7 16 15 16 21 5 49 -10 26 -10 32 2 37 8 3
14 13 14 23 0 15 2 16 10 3 5 -8 10 -10 10 -4 0 11 -54 67 -64 65 -18 -3 -26
0 -26 10 0 6 7 8 18 4 9 -3 2 9 -17 29 -19 19 -38 33 -42 31 -4 -3 -10 1 -13
7 -3 7 -4 4 -1 -7 4 -15 0 -21 -13 -21 -13 0 -18 8 -17 26 0 19 5 24 19 22 15
-3 16 -1 5 11 -10 11 -16 12 -21 3 -8 -11 -9 -8 -12 24 0 8 -11 16 -24 16 -21
1 -22 0 -6 -17z m24 1 c0 -5 -2 -10 -4 -10 -3 0 -8 5 -11 10 -3 6 -1 10 4 10
6 0 11 -4 11 -10z m85 -90 c18 -20 18 -21 0 -14 -12 5 -16 4 -12 -3 5 -7 0 -9
-13 -6 -11 3 -17 9 -14 14 3 5 10 6 16 3 7 -5 9 -1 5 9 -8 22 -4 21 18 -3z"/>
<path d="M1281 3922 c-1 -8 -6 -10 -13 -6 -7 4 -10 4 -6 -1 4 -4 0 -14 -10
-21 -9 -7 -14 -15 -10 -19 10 -11 51 32 45 47 -4 11 -6 11 -6 0z"/>
<path d="M3834 3780 c-1 -23 3 -30 18 -30 14 0 18 7 16 30 -3 41 -33 41 -34 0z"/>
<path d="M3882 3733 c2 -12 12 -18 28 -18 36 0 33 29 -3 33 -23 3 -28 0 -25
-15z"/>
<path d="M4060 3687 c0 -5 6 -7 13 -4 9 3 13 -6 13 -34 0 -26 -4 -39 -13 -39
-7 0 -13 -6 -13 -14 0 -8 -2 -21 -5 -28 -4 -9 2 -14 16 -15 17 -2 20 2 16 18
-5 20 -5 20 16 2 19 -15 20 -16 8 -1 -7 10 -11 31 -9 48 3 16 1 30 -4 30 -5 0
-6 5 -3 10 10 16 26 1 24 -23 -4 -44 1 -59 16 -53 9 3 15 0 15 -10 0 -9 -5
-12 -12 -8 -7 4 -8 3 -4 -4 4 -7 14 -12 22 -12 11 0 13 -6 9 -21 -5 -14 -3
-19 3 -15 6 4 8 -2 5 -13 -3 -13 2 -24 15 -32 12 -7 18 -19 14 -27 -4 -11 -2
-13 9 -6 30 18 37 12 33 -27 -2 -21 1 -50 6 -63 7 -20 6 -24 -5 -19 -9 3 -17
-2 -21 -13 -3 -11 -10 -28 -16 -38 -11 -20 -12 -20 50 -1 11 4 20 -1 27 -17 6
-13 16 -24 23 -24 6 -1 17 -2 23 -3 16 -1 6 -120 -12 -149 -15 -25 -6 -40 30
-47 20 -4 21 -1 15 33 l-7 37 28 -33 c15 -18 25 -35 22 -39 -4 -3 -2 -14 4
-24 6 -12 6 -19 0 -19 -5 0 -12 8 -15 18 -8 24 -49 24 -43 0 3 -9 1 -18 -5
-20 -5 -2 -10 -12 -12 -21 -1 -10 -8 -22 -15 -27 -8 -4 -10 -13 -7 -19 10 -15
36 11 37 36 0 10 3 13 6 6 2 -7 11 -13 19 -13 9 0 13 -4 10 -9 -3 -4 6 -6 21
-3 22 4 25 2 19 -13 -4 -10 0 -28 10 -43 9 -13 12 -22 7 -19 -5 3 -9 -16 -9
-43 0 -43 1 -47 14 -32 10 13 13 14 9 2 -2 -8 0 -42 5 -75 16 -99 12 -383 -6
-409 -8 -13 -11 -28 -6 -35 6 -11 9 -11 13 0 3 8 6 9 6 3 1 -7 -5 -26 -13 -44
l-13 -32 -7 42 c-4 24 -9 41 -11 38 -5 -5 22 -159 29 -165 2 -2 10 36 17 84
17 105 20 560 4 571 -5 4 -10 25 -11 47 -1 82 -95 415 -117 415 -6 0 -8 3 -4
6 7 7 -27 97 -49 131 -8 13 -14 25 -14 28 1 9 -74 140 -82 143 -4 2 -8 8 -8
13 0 5 -21 40 -47 78 -31 45 -54 69 -65 68 -10 -1 -18 -5 -18 -10z m80 -78 c0
-6 -4 -7 -10 -4 -5 3 -10 11 -10 16 0 6 5 7 10 4 6 -3 10 -11 10 -16z m74
-104 c6 -16 -19 -33 -31 -21 -4 3 2 6 12 6 14 0 15 3 5 15 -7 9 -8 15 -2 15 5
0 13 -7 16 -15z m43 -97 c-3 -8 -6 -5 -6 6 -1 11 2 17 5 13 3 -3 4 -12 1 -19z
m46 -97 c-8 -30 -30 -26 -36 7 -3 15 -8 38 -13 52 -7 24 -6 24 24 -7 21 -22
29 -38 25 -52z m7 -62 c0 -6 -4 -7 -10 -4 -5 3 -10 11 -10 16 0 6 5 7 10 4 6
-3 10 -11 10 -16z m17 -1 c-3 -8 -6 -5 -6 6 -1 11 2 17 5 13 3 -3 4 -12 1 -19z
m48 -115 c9 -20 13 -41 11 -47 -2 -6 -5 -3 -5 7 -1 9 -7 17 -15 17 -8 0 -17
-8 -19 -17 -3 -11 -5 -7 -6 10 0 15 4 27 10 27 6 0 9 9 6 20 -8 32 1 23 18
-17z m52 -175 c-3 -8 -6 -5 -6 6 -1 11 2 17 5 13 3 -3 4 -12 1 -19z m30 -790
c-3 -8 -6 -5 -6 6 -1 11 2 17 5 13 3 -3 4 -12 1 -19z"/>
<path d="M4276 3335 c4 -8 8 -15 10 -15 2 0 4 7 4 15 0 8 -4 15 -10 15 -5 0
-7 -7 -4 -15z"/>
<path d="M850 3620 c-8 -6 -10 -10 -5 -10 6 0 2 -5 -7 -11 -10 -5 -18 -17 -18
-24 0 -8 -3 -15 -7 -15 -5 0 -15 -13 -24 -29 -16 -27 -16 -29 0 -27 9 2 17 8
17 14 1 7 2 16 3 21 0 5 10 11 22 14 12 3 18 10 14 17 -4 6 1 20 11 31 19 22
16 33 -6 19z"/>
<path d="M3997 3593 c-4 -6 0 -19 8 -29 11 -15 14 -16 15 -4 0 21 -16 44 -23
33z"/>
<path d="M2236 3561 c-10 -16 5 -41 25 -41 23 0 26 35 3 44 -20 8 -22 8 -28
-3z"/>
<path d="M2422 3562 c-7 -5 -24 -7 -38 -4 -14 2 -24 0 -24 -7 0 -6 7 -11 15
-11 8 0 15 -5 15 -11 0 -5 5 -7 12 -3 8 5 9 2 5 -10 -4 -10 -3 -15 3 -11 6 3
10 -2 10 -13 0 -16 -5 -18 -27 -14 -16 2 -25 2 -22 -2 3 -3 17 -7 32 -8 14 -1
23 -6 21 -10 -3 -4 -11 -5 -19 -1 -8 3 -15 0 -15 -7 0 -13 -24 -40 -36 -40 -4
0 1 9 11 20 10 11 15 23 12 27 -10 9 -37 -29 -35 -47 4 -23 -11 -40 -27 -33
-8 3 -15 1 -15 -5 0 -5 6 -12 13 -15 15 -6 169 146 181 178 6 16 9 17 16 5 6
-8 10 -12 10 -9 0 4 40 -33 88 -82 81 -81 116 -109 95 -76 -4 6 -6 22 -5 34 4
29 -45 64 -58 42 -5 -7 -12 -10 -16 -6 -4 3 -2 13 5 21 9 11 6 20 -15 45 -14
17 -33 31 -42 31 -13 0 -11 -5 8 -20 14 -11 20 -20 13 -20 -6 0 -18 7 -26 15
-8 8 -18 11 -22 7 -4 -4 -3 3 3 14 13 25 6 37 -17 25 -16 -8 -40 -7 -76 3 -11
4 -26 2 -33 -2z m50 -12 c7 0 6 -5 -1 -14 -9 -11 -9 -15 1 -18 7 -3 -2 -5 -20
-6 -18 0 -30 3 -27 8 3 5 0 12 -6 16 -15 9 11 26 29 19 8 -3 18 -5 24 -5z
m-22 -60 c0 -5 -5 -10 -11 -10 -5 0 -7 5 -4 10 3 6 8 10 11 10 2 0 4 -4 4 -10z
m229 -84 c0 -21 0 -21 -9 2 -5 12 -14 22 -20 22 -6 0 -8 5 -5 10 10 17 35 -9
34 -34z"/>
<path d="M2435 3540 c3 -5 8 -10 11 -10 2 0 4 5 4 10 0 6 -5 10 -11 10 -5 0
-7 -4 -4 -10z"/>
<path d="M2585 3560 c-3 -5 1 -10 9 -10 8 0 18 5 21 10 3 6 -1 10 -9 10 -8 0
-18 -4 -21 -10z"/>
<path d="M2646 3562 c-2 -4 -1 -14 5 -22 5 -8 9 -10 9 -5 0 6 4 3 9 -5 6 -8 7
-18 4 -23 -3 -5 -9 -3 -13 3 -5 8 -7 3 -7 -13 2 -35 8 -34 29 7 16 32 16 35
-1 50 -20 18 -28 20 -35 8z"/>
<path d="M2895 3561 c-4 -7 -4 -24 0 -39 7 -26 8 -26 17 -6 12 25 -4 66 -17
45z"/>
<path d="M2954 3534 c-7 -36 7 -69 36 -84 20 -11 27 -40 13 -54 -12 -12 -12
-70 -1 -83 8 -9 7 -13 -3 -13 -12 0 -12 -2 0 -9 7 -5 11 -13 8 -18 -3 -5 1
-23 9 -39 8 -16 10 -24 3 -17 -6 6 -18 9 -25 6 -22 -8 -17 -20 9 -21 38 -2 58
-8 55 -18 -2 -5 -7 -8 -11 -6 -5 1 -5 -2 -2 -8 4 -6 -1 -18 -11 -25 -25 -19
-40 -19 -24 0 11 13 10 14 -5 9 -13 -5 -16 -4 -11 5 8 12 -10 41 -24 41 -5 0
-10 -8 -13 -17 -2 -10 -4 6 -4 35 0 29 4 55 10 59 7 4 8 0 3 -12 -6 -15 -4
-16 10 -4 14 12 14 14 -2 26 -10 7 -12 13 -6 13 8 0 11 18 10 53 l-1 52 -7
-50 c-4 -27 -8 -40 -8 -27 -4 44 -22 21 -22 -28 0 -43 -3 -50 -20 -50 -11 0
-20 -7 -20 -15 0 -8 4 -15 8 -15 5 0 9 -14 9 -31 0 -25 -3 -29 -12 -18 -6 8
-17 20 -25 27 -13 11 -13 12 3 7 10 -5 17 -2 17 5 0 7 -8 10 -20 7 -13 -3 -18
-1 -13 5 3 6 2 8 -3 5 -6 -3 -11 8 -12 24 -2 19 1 28 8 24 6 -4 9 -14 8 -22
-2 -9 3 -18 10 -20 9 -4 10 2 2 23 -6 15 -9 33 -6 40 3 8 0 11 -10 7 -7 -3
-14 -10 -14 -15 0 -6 -6 -8 -14 -5 -8 3 -17 1 -20 -6 -3 -8 -9 -7 -19 6 -8 9
-19 17 -26 17 -14 0 216 -224 235 -228 8 -2 12 -7 10 -11 -3 -4 26 -39 64 -76
39 -38 70 -64 70 -58 0 7 -8 17 -17 22 -10 6 -13 11 -6 11 6 0 19 -7 27 -16 9
-8 16 -11 16 -6 0 16 -29 35 -45 28 -18 -7 -20 10 -2 18 10 5 10 7 0 12 -7 3
-13 17 -13 31 0 22 14 26 15 5 2 -24 18 -52 30 -52 8 0 17 -9 20 -20 3 -11 10
-20 15 -20 16 0 21 20 10 37 -11 17 -11 17 -6 -1 5 -16 4 -17 -8 -6 -9 6 -15
15 -14 18 3 27 -6 44 -27 54 -25 11 -37 58 -14 58 8 0 7 6 -2 17 -8 9 0 7 19
-7 36 -27 42 -36 13 -20 -14 7 -22 7 -26 0 -4 -6 -3 -9 2 -8 10 3 78 -70 85
-91 3 -12 6 -12 11 2 3 9 2 17 -3 17 -5 0 -14 10 -20 23 -8 16 -3 13 20 -11
17 -18 35 -32 41 -30 5 2 -49 61 -121 132 l-130 129 0 103 0 103 137 3 c123 3
137 1 141 -14 4 -16 32 -26 32 -12 0 17 -38 39 -69 39 -32 0 -36 3 -33 23 3
21 1 22 -17 12 -12 -6 -21 -15 -21 -20 0 -6 -33 -10 -75 -10 -46 0 -75 4 -75
11 0 5 -5 7 -10 4 -6 -4 -7 -11 -4 -17 4 -6 1 -9 -7 -6 -8 3 -14 10 -14 16 0
6 -6 17 -12 24 -7 6 -13 19 -13 28 1 13 3 12 14 -2 17 -24 21 -23 24 5 1 20
-3 24 -28 24 -26 0 -31 -5 -36 -33z m51 -65 c11 -17 2 -18 -19 -3 -17 12 -17
14 -4 14 9 0 20 -5 23 -11z m-162 -220 c4 -16 3 -18 -9 -8 -16 13 -19 29 -5
29 5 0 11 -9 14 -21z m97 -19 c8 -5 12 -11 10 -14 -3 -2 -14 2 -24 10 -22 15
-10 19 14 4z m0 -50 c0 -11 6 -20 13 -21 9 0 9 -2 -1 -6 -6 -2 -9 -9 -6 -14 4
-6 11 -6 19 1 9 8 15 8 20 0 3 -5 -1 -10 -10 -10 -10 0 -14 -5 -9 -12 4 -7 -4
-3 -16 9 -22 21 -35 73 -18 73 4 0 8 -9 8 -20z m160 -46 c0 -21 -8 -42 -21
-55 l-22 -22 24 6 c23 6 24 4 22 -36 -1 -23 -2 -44 -2 -46 -1 -2 -10 6 -21 19
-11 13 -18 26 -15 29 4 3 10 -1 15 -9 6 -8 10 -10 10 -4 0 13 -36 43 -75 64
-16 8 -30 22 -32 30 -3 10 1 8 11 -4 16 -20 16 -20 17 0 0 10 3 13 6 7 7 -20
23 -15 16 5 -3 9 -2 14 2 9 5 -4 14 6 21 23 17 40 44 31 44 -16z m-59 -91 c13
-16 12 -17 -3 -4 -10 7 -18 15 -18 17 0 8 8 3 21 -13z"/>
<path d="M3200 3557 c0 -9 12 -13 35 -13 43 1 40 20 -3 24 -22 2 -32 -1 -32
-11z"/>
<path d="M2610 3544 c0 -3 7 -12 15 -20 16 -17 18 -14 9 10 -6 15 -24 23 -24
10z"/>
<path d="M3276 3523 c-5 -11 4 -25 29 -46 26 -21 34 -34 28 -46 -4 -9 -10 -95
-13 -191 l-7 -175 1 178 c1 97 -3 177 -7 177 -4 0 -7 -97 -7 -216 1 -170 -1
-219 -12 -226 -9 -7 -4 -8 15 -5 33 5 35 -5 5 -26 l-23 -16 23 0 c13 -1 20 3
17 9 -3 6 -1 10 4 10 6 0 11 14 11 31 0 24 -4 30 -15 25 -20 -7 -20 30 -1 50
21 20 28 17 14 -5 -9 -15 -7 -24 10 -46 13 -16 22 -22 22 -13 0 8 -5 19 -12
26 -9 9 -9 18 0 37 7 15 8 24 2 20 -7 -4 -10 49 -10 154 0 87 -2 165 -3 173
-2 7 -2 10 0 6 9 -16 23 -7 23 13 0 13 -4 18 -11 13 -8 -5 -10 1 -7 18 4 21 1
24 -14 20 -16 -4 -17 -1 -9 19 5 13 14 23 19 22 6 -1 13 4 16 12 4 12 -4 15
-38 15 -32 0 -46 -5 -50 -17z m61 -395 c-2 -24 -4 -7 -4 37 0 44 2 63 4 43 2
-21 2 -57 0 -80z"/>
<path d="M2706 3515 c-3 -9 0 -15 9 -15 16 0 20 16 6 24 -5 3 -11 -1 -15 -9z"/>
<path d="M3078 3523 c23 -2 59 -2 80 0 20 2 1 4 -43 4 -44 0 -61 -2 -37 -4z"/>
<path d="M2300 3500 c-26 -26 -25 -34 5 -50 32 -17 55 0 55 41 0 35 -29 40
-60 9z m43 -14 c7 -18 -11 -36 -29 -29 -21 8 -17 43 5 43 10 0 21 -6 24 -14z"/>
<path d="M768 3468 c3 -13 0 -17 -10 -13 -19 7 -70 -96 -57 -116 7 -11 9 -9 9
7 0 12 9 33 21 48 11 14 18 30 14 35 -3 5 -1 12 4 15 11 7 24 -22 16 -35 -4
-5 1 -6 9 -3 9 3 16 11 16 17 0 6 3 8 6 5 3 -3 0 -15 -7 -26 -13 -21 -5 -57
11 -47 11 7 13 55 4 80 -5 13 -9 14 -15 4 -4 -8 -11 -10 -14 -7 -4 4 -3 13 1
20 13 21 13 35 -1 35 -7 0 -10 -8 -7 -19z"/>
<path d="M2697 3473 c-17 -4 -17 -6 -3 -22 9 -9 16 -37 17 -62 2 -35 7 -49 28
-64 26 -19 26 -19 11 0 -8 11 -19 23 -25 27 -6 5 -6 8 1 8 6 0 17 -7 24 -15 7
-8 18 -15 24 -15 6 1 -5 14 -24 30 -20 17 -28 30 -20 30 12 0 12 2 2 9 -9 5
-11 17 -6 36 5 22 4 26 -6 20 -10 -6 -12 -4 -7 8 3 10 5 16 4 16 -1 -1 -10 -3
-20 -6z"/>
<path d="M2910 3472 c0 -5 7 -9 15 -9 8 0 12 4 9 9 -3 4 -9 8 -15 8 -5 0 -9
-4 -9 -8z"/>
<path d="M2900 3435 c0 -6 6 -17 13 -24 10 -11 10 -13 0 -7 -10 5 -13 -9 -13
-58 0 -36 4 -66 9 -66 14 0 23 35 20 75 -2 19 0 37 4 41 4 4 7 18 7 30 0 17
-5 22 -20 21 -11 -1 -20 -6 -20 -12z"/>
<path d="M4163 3443 c-19 -7 -16 -33 3 -33 11 0 15 -8 12 -27 -1 -16 -6 -30
-9 -33 -3 -3 5 -16 18 -30 l25 -25 -5 54 c-3 30 -10 57 -15 60 -5 3 -11 13
-13 22 -2 9 -10 14 -16 12z"/>
<path d="M2240 3418 c0 -13 4 -29 9 -37 7 -11 12 -11 31 2 l22 15 -21 7 c-12
3 -21 13 -21 21 0 8 -4 14 -10 14 -5 0 -10 -10 -10 -22z"/>
<path d="M2986 3415 c4 -8 8 -15 10 -15 2 0 4 7 4 15 0 8 -4 15 -10 15 -5 0
-7 -7 -4 -15z"/>
<path d="M2317 3407 c-3 -8 1 -14 8 -14 7 0 11 6 8 14 -3 7 -6 13 -8 13 -2 0
-5 -6 -8 -13z"/>
<path d="M2075 3400 c-4 -7 -2 -17 4 -23 9 -9 11 -8 6 6 -7 18 10 24 18 7 3
-6 4 -5 3 2 -3 16 -23 21 -31 8z"/>
<path d="M2153 3403 c-13 -2 -23 -9 -23 -14 0 -13 22 -10 44 6 20 15 19 16
-21 8z"/>
<path d="M2778 3398 c-32 -11 -36 -23 -12 -32 22 -9 32 3 14 15 -12 8 -10 9 6
5 14 -5 21 -2 21 9 0 8 -1 15 -1 14 -1 0 -13 -5 -28 -11z"/>
<path d="M2153 3364 c-13 -13 -22 -28 -19 -33 3 -5 -1 -12 -10 -15 -8 -3 -12
-2 -9 4 3 6 2 10 -3 10 -19 0 -21 -14 -6 -38 9 -13 11 -21 4 -17 -9 6 -9 3 -1
-14 7 -11 9 -21 5 -21 -3 0 -1 -7 6 -15 12 -15 6 -35 -11 -35 -6 0 -8 4 -5 9
9 14 -3 38 -19 38 -8 0 -12 -4 -9 -9 3 -4 -9 -8 -25 -8 -17 0 -31 -5 -31 -11
0 -5 -5 -7 -12 -3 -7 4 -8 3 -4 -4 11 -18 76 -15 76 3 0 8 5 15 10 15 6 0 10
-8 8 -17 -2 -12 3 -18 15 -17 10 1 16 -3 14 -10 -5 -12 -9 -12 -42 -1 -16 6
-17 5 -5 -4 14 -10 7 -15 -13 -12 -4 1 -3 -7 2 -17 7 -14 5 -21 -8 -29 -10 -6
-23 -8 -30 -3 -9 5 -10 10 -2 14 6 4 11 2 11 -5 0 -9 3 -10 10 -3 12 12 3 44
-12 44 -6 0 -5 -7 2 -15 11 -13 10 -14 -4 -9 -9 3 -16 1 -16 -6 0 -6 -4 -8
-10 -5 -19 12 -10 -7 13 -26 l22 -20 -24 11 c-16 8 -21 9 -17 1 4 -6 4 -11 -1
-11 -19 1 -31 17 -35 45 -4 36 -22 40 -26 6 -2 -15 0 -21 7 -17 19 12 12 -6
-11 -33 -13 -14 -16 -20 -7 -13 13 10 19 10 28 -1 6 -8 8 -17 4 -20 -3 -4 -2
-7 4 -7 16 0 24 28 10 34 -9 3 -9 5 0 5 23 2 25 -21 4 -42 -13 -13 -21 -16
-21 -9 0 7 -4 10 -10 7 -5 -3 -10 -2 -10 4 0 5 6 12 13 14 7 4 8 6 1 6 -6 1
-17 -6 -24 -15 -11 -13 -10 -16 8 -21 12 -3 19 -9 16 -14 -3 -5 -10 -7 -15 -4
-5 4 -6 -2 -2 -12 6 -15 4 -16 -9 -5 -12 10 -18 9 -28 -3 -7 -9 -8 -15 -2 -15
6 0 13 5 15 10 3 6 4 5 3 -2 -2 -7 -9 -13 -17 -13 -19 0 -42 -23 -35 -34 4 -5
-1 -8 -9 -7 -19 3 -32 16 -16 16 8 0 10 8 7 23 -3 12 -3 16 0 9 5 -10 9 -10
20 -1 8 6 11 16 7 22 -4 6 -1 7 7 2 7 -4 16 -2 21 6 11 18 11 32 0 25 -5 -4
-11 -1 -13 6 -5 15 -38 -13 -38 -31 0 -6 -5 -11 -10 -11 -6 0 -20 -9 -32 -20
-18 -16 -19 -20 -6 -20 10 0 18 -10 20 -22 2 -14 9 -22 18 -20 12 3 13 1 2
-10 -11 -11 -14 -10 -22 2 -8 13 -11 12 -24 -5 -9 -12 -15 -15 -16 -7 0 15
-20 6 -20 -9 0 -6 5 -7 12 -3 8 5 9 2 5 -9 -4 -10 -1 -17 5 -17 13 0 1 -14
-13 -16 -5 -1 -12 -3 -16 -4 -12 -4 -26 -8 -40 -9 -7 0 -13 -6 -13 -12 0 -8 4
-8 14 0 10 9 15 8 19 -3 3 -8 -1 -13 -11 -12 -10 0 -17 -6 -17 -16 0 -9 -4
-20 -8 -24 -7 -7 -9 10 -10 64 0 12 -4 22 -9 22 -6 0 -8 -7 -4 -15 3 -8 1 -15
-5 -15 -6 0 -7 -5 -3 -12 4 -6 -1 -17 -11 -25 -11 -7 -16 -14 -12 -14 4 -1 12
-3 17 -4 6 -1 15 -3 21 -4 8 -1 7 -6 -2 -17 -11 -14 -14 -14 -23 -2 -6 8 -17
13 -25 10 -8 -2 -11 0 -8 5 3 5 1 10 -6 10 -7 0 -13 -13 -14 -29 -1 -26 1 -28
16 -14 10 9 22 12 30 7 9 -6 10 -11 2 -15 -6 -4 -11 -2 -11 5 0 8 -4 8 -15 -1
-8 -7 -13 -16 -10 -20 3 -4 -3 -7 -13 -6 -22 1 -31 23 -25 58 4 22 2 26 -13
24 -11 -2 -19 -9 -19 -17 0 -8 7 -13 15 -11 12 2 11 -1 -2 -11 -10 -8 -15 -17
-11 -21 4 -4 -1 -4 -11 0 -16 6 -17 5 -7 -15 7 -12 17 -21 24 -20 26 3 37 -2
37 -16 0 -8 -5 -15 -11 -15 -5 0 -8 4 -4 9 3 5 0 13 -6 17 -8 5 -9 3 -4 -6 6
-10 4 -12 -8 -7 -17 6 -21 -3 -18 -32 2 -7 -2 -10 -8 -6 -7 3 -8 0 -5 -10 5
-11 2 -14 -12 -9 -16 5 -16 4 -4 -5 14 -10 7 -16 -14 -12 -5 1 -17 -6 -27 -15
-11 -10 -19 -12 -19 -6 0 7 6 12 13 12 9 0 8 3 -2 9 -10 6 -10 13 -2 29 6 11
8 27 5 36 -8 22 -34 8 -34 -19 0 -20 -4 -23 -25 -19 -17 3 -25 0 -25 -10 0
-18 31 -30 41 -15 9 16 29 2 23 -16 -4 -8 1 -18 10 -21 9 -3 13 -10 10 -16 -3
-5 -12 -4 -22 4 -12 10 -14 10 -8 1 4 -8 2 -13 -4 -13 -6 0 -8 -4 -5 -10 3 -5
2 -10 -4 -10 -14 0 -23 18 -10 22 5 2 7 11 3 21 -5 14 -9 15 -20 6 -18 -15
-18 -33 1 -49 21 -17 19 -26 -5 -26 -12 0 -19 5 -16 13 8 20 -9 23 -34 6 l-23
-16 24 -13 c17 -9 28 -9 36 -2 9 7 13 7 13 -1 0 -6 -9 -16 -20 -23 -11 -7 -20
-17 -20 -23 0 -5 57 46 127 114 71 68 127 128 125 133 -1 5 1 7 6 4 9 -6 272
254 272 268 0 6 7 11 16 12 9 1 100 85 201 186 102 101 192 189 200 197 7 7
11 16 8 20 -4 3 -11 -2 -16 -12 -14 -25 -39 -21 -39 6 0 17 -9 25 -36 34 -34
10 -39 9 -61 -13z m43 -20 c-5 -13 -1 -15 17 -10 16 4 26 -1 36 -17 13 -21 13
-21 -4 -7 -17 14 -18 13 -12 -4 5 -13 1 -25 -13 -38 -11 -10 -20 -14 -20 -8 0
5 -5 10 -11 10 -6 0 -9 -6 -6 -14 3 -8 -1 -22 -9 -33 -9 -10 -12 -12 -8 -4 5
9 3 12 -4 7 -7 -4 -12 -14 -12 -22 0 -8 -4 -14 -10 -14 -5 0 -7 7 -3 16 3 9 0
20 -8 26 -11 8 -9 8 5 4 17 -6 17 -5 5 11 -9 11 -10 14 -1 9 7 -4 12 -2 12 7
0 21 27 42 33 25 2 -7 8 -9 13 -5 5 4 2 12 -5 16 -13 9 -9 61 5 61 3 0 3 -7 0
-16z m-26 -24 c0 -5 -5 -10 -11 -10 -5 0 -7 5 -4 10 3 6 8 10 11 10 2 0 4 -4
4 -10z m-60 -164 c0 -2 -7 -9 -15 -16 -13 -11 -14 -10 -9 4 5 14 24 23 24 12z
m-290 -272 c0 -3 -7 -12 -15 -20 -16 -17 -18 -14 -9 10 6 15 24 23 24 10z
m-50 -58 c0 -2 -8 -10 -17 -17 -16 -13 -17 -12 -4 4 13 16 21 21 21 13z m-207
-203 c-3 -7 -6 -13 -8 -13 -2 0 -5 6 -8 13 -3 8 1 14 8 14 7 0 11 -6 8 -14z"/>
<path d="M2200 3311 c0 -5 7 -14 15 -21 16 -14 18 -10 9 14 -6 17 -24 22 -24
7z"/>
<path d="M2167 3273 c-10 -9 -9 -33 1 -33 4 0 8 9 8 20 0 23 0 22 -9 13z"/>
<path d="M2833 3383 c-7 -3 -13 -13 -13 -23 0 -20 26 -34 43 -23 7 4 6 -1 -2
-10 -12 -15 -12 -17 3 -11 10 4 15 13 12 21 -3 8 -6 22 -6 31 0 14 -2 14 -9 3
-8 -12 -10 -12 -12 1 -2 8 -10 13 -16 11z"/>
<path d="M2265 3350 c-3 -5 -1 -10 4 -10 6 0 11 5 11 10 0 6 -2 10 -4 10 -3 0
-8 -4 -11 -10z"/>
<path d="M760 3340 c-11 -7 -11 -10 -2 -10 7 0 11 -3 9 -7 -3 -5 -7 -26 -10
-48 -3 -22 -3 -34 -1 -27 8 18 22 15 26 -5 3 -15 6 -15 17 5 11 20 10 25 -3
35 -9 7 -17 24 -18 40 -1 15 -3 27 -3 27 0 0 -7 -5 -15 -10z"/>
<path d="M2787 3330 c-5 -18 -2 -21 13 -17 11 3 21 0 23 -7 2 -6 7 -8 11 -5 3
3 -5 16 -18 28 l-23 22 -6 -21z"/>
<path d="M724 3322 c3 -6 2 -13 -4 -17 -5 -3 -10 -2 -10 3 0 6 -8 8 -19 5 -20
-5 -45 -49 -36 -64 4 -5 2 -9 -3 -9 -12 0 -54 -119 -46 -131 3 -5 1 -9 -3 -9
-11 0 -45 -114 -47 -155 0 -16 -4 -32 -8 -35 -19 -15 -59 -448 -40 -436 8 5 9
-9 5 -43 -3 -27 -2 -87 2 -134 5 -68 10 -85 21 -80 8 3 14 17 13 32 l-1 26 -8
-25 c-8 -25 -8 -24 -9 5 -1 17 -4 41 -7 55 -4 19 -3 22 5 10 9 -13 10 -13 15
0 13 42 14 44 15 23 1 -12 -3 -25 -9 -28 -5 -3 -10 -14 -10 -23 0 -15 2 -15
10 -2 6 10 10 11 10 3 0 -7 5 -13 10 -13 6 0 10 32 10 75 0 43 -4 75 -10 75
-5 0 -10 -12 -11 -27 -1 -22 -4 -17 -16 22 -8 28 -19 58 -25 68 -11 22 11 167
25 167 5 0 6 -8 2 -17 -4 -10 -8 -43 -11 -73 l-4 -55 11 43 c6 23 16 42 22 42
7 0 6 4 -3 10 -8 5 -10 10 -4 10 6 0 12 11 12 24 0 18 -7 26 -25 31 -21 5 -23
9 -17 43 11 60 17 53 16 -18 0 -23 0 -23 5 -2 2 12 9 20 14 17 5 -4 9 -2 9 4
0 5 -5 11 -10 13 -14 4 -23 78 -9 78 6 0 8 8 5 18 -4 11 2 27 14 40 21 23 22
40 3 57 -13 11 1 60 15 51 4 -2 6 11 4 30 -2 18 -1 41 2 50 6 15 8 15 21 -2 8
-10 15 -14 15 -9 0 6 -5 16 -12 23 -9 9 -7 17 10 35 12 13 22 27 22 33 0 5 -7
1 -14 -9 -8 -10 -17 -14 -20 -9 -3 5 1 15 9 22 8 7 12 16 9 21 -8 13 38 69 57
69 10 0 21 5 25 12 5 7 3 8 -6 3 -9 -5 -10 -2 -5 14 6 19 4 20 -19 11 -20 -7
-24 -6 -19 5 3 8 9 13 13 10 5 -3 12 0 16 6 5 9 11 7 21 -6 7 -11 13 -15 14
-9 0 5 2 17 4 26 2 10 -2 21 -7 25 -6 3 -8 1 -4 -5z m-162 -444 c-7 -7 -12 -8
-12 -2 0 14 12 26 19 19 2 -3 -1 -11 -7 -17z m-23 -508 c-1 -32 -2 -33 -9 -10
-4 14 -8 36 -9 50 -1 20 1 22 9 10 5 -8 9 -31 9 -50z"/>
<path d="M4175 3249 c6 -9 3 -11 -9 -6 -9 4 -14 3 -11 -2 5 -9 52 -9 58 0 1 2
0 3 -2 2 -2 -1 -13 2 -24 8 -15 9 -18 8 -12 -2z"/>
<path d="M1917 3243 c-14 -14 -6 -29 22 -39 28 -11 28 -11 17 17 -10 28 -25
36 -39 22z"/>
<path d="M1960 3244 c0 -2 9 -8 20 -14 11 -6 20 -7 20 -2 0 6 -9 12 -20 15
-11 3 -20 3 -20 1z"/>
<path d="M1917 3180 c3 -11 9 -20 15 -20 5 0 4 9 -2 20 -6 11 -12 20 -14 20
-2 0 -2 -9 1 -20z"/>
<path d="M3000 3190 c0 -5 5 -10 11 -10 5 0 7 5 4 10 -3 6 -8 10 -11 10 -2 0
-4 -4 -4 -10z"/>
<path d="M630 3078 c0 -7 5 -20 10 -28 8 -12 10 -11 10 7 0 12 -4 25 -10 28
-5 3 -10 0 -10 -7z"/>
<path d="M1779 3060 c-28 -30 -36 -67 -15 -67 9 0 14 3 13 6 -3 7 61 70 66 65
2 -2 4 3 4 11 0 23 -42 14 -68 -15z"/>
<path d="M1870 3070 c0 -13 5 -18 14 -14 8 3 12 12 9 20 -8 21 -23 17 -23 -6z"/>
<path d="M605 2978 c0 -38 3 -68 8 -68 7 0 9 11 11 53 1 10 8 22 15 26 10 7
11 13 2 27 -6 11 -11 13 -11 7 0 -19 -18 -15 -22 5 -2 9 -4 -13 -3 -50z"/>
<path d="M4310 2970 c0 -11 4 -20 8 -20 4 0 8 9 9 20 1 11 -2 20 -8 20 -5 0
-9 -9 -9 -20z"/>
<path d="M1763 2973 c-18 -7 -16 -23 2 -23 8 0 15 7 15 15 0 8 -1 15 -2 14 -2
0 -9 -3 -15 -6z"/>
<path d="M3240 2954 c0 -19 -4 -25 -15 -20 -15 5 -65 -12 -65 -23 0 -7 177
-181 224 -221 16 -14 26 -19 22 -12 -4 6 -2 12 4 12 7 0 10 6 7 14 -3 7 -1 18
5 24 16 16 2 41 -21 39 -12 -1 -21 -5 -21 -10 0 -5 10 -5 22 -1 20 6 21 5 9
-9 -10 -13 -18 -14 -32 -6 -15 7 -18 18 -14 47 3 28 2 33 -6 22 -9 -12 -10
-11 -6 6 4 18 1 20 -16 16 -14 -4 -18 -2 -12 8 4 7 2 16 -6 21 -11 7 -11 9 -1
9 10 0 9 4 -3 16 -8 9 -22 13 -30 10 -19 -7 -29 11 -28 51 0 18 -4 33 -8 33
-5 0 -9 -12 -9 -26z m-12 -51 c-7 -9 -7 -18 2 -28 7 -9 10 -18 6 -22 -3 -3 -6
-1 -6 5 0 7 -7 12 -15 12 -9 0 -12 6 -8 17 4 11 3 14 -5 9 -13 -8 -35 1 -28
12 2 4 18 7 34 7 23 0 28 -3 20 -12z m32 -13 c0 -5 -4 -10 -10 -10 -5 0 -10 5
-10 10 0 6 5 10 10 10 6 0 10 -4 10 -10z m44 -48 c-21 -5 -26 2 -18 22 6 15 7
15 20 -1 11 -15 10 -19 -2 -21z m-13 -12 c10 0 18 -3 18 -7 -3 -20 2 -27 11
-13 5 8 13 11 17 6 4 -5 2 -11 -4 -13 -18 -7 -16 -23 3 -23 10 0 14 -6 10 -15
-3 -8 -1 -15 3 -15 5 0 12 -7 15 -15 5 -13 1 -12 -18 2 -13 10 -22 21 -21 24
2 3 -5 12 -16 19 -10 8 -19 21 -19 30 0 13 -1 13 -10 0 -8 -13 -10 -12 -10 3
0 11 -4 15 -12 11 -8 -5 -9 -2 -5 10 4 10 8 23 8 29 1 7 4 2 6 -10 3 -15 12
-23 24 -23z m109 -120 c0 -5 -2 -10 -4 -10 -3 0 -8 5 -11 10 -3 6 -1 10 4 10
6 0 11 -4 11 -10z"/>
<path d="M1700 2917 c0 -18 33 -28 51 -16 17 10 5 22 -26 26 -17 3 -25 -1 -25
-10z"/>
<path d="M3340 2909 c0 -24 23 -21 28 4 2 10 -3 17 -12 17 -10 0 -16 -9 -16
-21z"/>
<path d="M1622 2902 c-18 -14 -20 -20 -10 -30 6 -6 20 -12 31 -12 26 0 59 -19
52 -30 -3 -6 1 -7 9 -4 9 3 16 10 16 16 0 5 6 6 13 2 7 -4 9 -3 4 2 -5 5 -17
10 -28 10 -36 3 -39 4 -39 17 0 7 -6 21 -12 30 -12 15 -15 15 -36 -1z"/>
<path d="M4361 2878 c0 -31 3 -37 8 -24 8 20 8 20 13 0 3 -11 4 -35 3 -54 -1
-19 3 -38 9 -42 16 -11 38 -10 31 2 -4 6 -9 8 -13 6 -9 -6 -8 71 1 80 10 10 8
46 -3 64 -6 10 -8 4 -4 -21 8 -47 -12 -60 -20 -14 -10 51 -26 53 -25 3z"/>
<path d="M600 2830 c0 -30 4 -50 11 -50 8 0 8 -5 -1 -15 -8 -10 -9 -15 -2 -15
6 0 14 -16 18 -35 3 -20 8 -34 10 -33 9 10 12 125 4 138 -7 11 -9 5 -5 -20 4
-29 3 -31 -4 -10 -5 14 -9 40 -10 58 -2 53 -21 36 -21 -18z"/>
<path d="M4340 2798 c0 -27 5 -48 10 -48 19 0 22 30 6 63 l-16 32 0 -47z"/>
<path d="M1595 2805 c0 -17 6 -25 18 -25 20 0 21 4 7 31 -15 26 -25 24 -25 -6z"/>
<path d="M1470 2760 c-8 -5 -10 -10 -5 -10 6 -1 0 -5 -12 -10 -27 -11 -31 -39
-5 -42 9 0 22 -2 27 -3 6 -2 15 -3 22 -4 7 -1 9 -12 7 -31 -3 -17 -1 -30 5
-30 6 0 7 7 4 17 -4 10 -2 14 5 9 6 -3 13 -2 17 4 3 5 2 10 -3 10 -12 0 -36
58 -35 82 2 20 -5 22 -27 8z"/>
<path d="M3472 2755 c-4 -6 -14 -14 -23 -17 -9 -4 -19 -20 -21 -37 -3 -23 -1
-28 8 -21 8 8 12 4 12 -15 0 -22 -3 -24 -17 -13 -9 6 38 -43 104 -111 118
-120 155 -152 155 -132 0 5 -12 16 -27 23 -14 7 -29 19 -31 27 -3 9 0 11 8 6
9 -6 9 -3 1 12 -6 11 -7 24 -3 28 4 5 1 5 -6 1 -7 -5 -11 -14 -8 -22 3 -8 1
-14 -3 -14 -5 0 -11 6 -14 14 -7 17 18 40 33 31 22 -14 8 26 -15 41 -14 9 -25
22 -25 30 0 8 -6 11 -17 7 -11 -4 -14 -3 -9 5 9 14 -3 15 -24 2 -10 -6 -11
-10 -2 -10 6 0 12 -5 12 -10 0 -7 -7 -7 -21 1 -14 7 -19 17 -16 30 3 10 1 22
-4 25 -5 3 -9 -2 -9 -10 0 -20 -19 -31 -33 -17 -8 8 -6 14 7 24 16 12 16 14
-3 31 -27 25 -28 56 -1 56 11 0 20 5 20 10 0 6 7 10 16 10 9 0 14 6 12 13 -6
16 -46 18 -56 2z m3 -115 c-3 -5 -11 -10 -16 -10 -6 0 -7 5 -4 10 3 6 11 10
16 10 6 0 7 -4 4 -10z m94 -76 c15 13 18 12 33 -14 13 -24 14 -31 3 -40 -10
-8 -23 -1 -54 28 -22 21 -41 42 -41 47 0 5 9 -1 21 -14 19 -20 23 -21 38 -7z"/>
<path d="M3574 2549 c-3 -6 -2 -15 4 -21 6 -6 12 -6 17 3 6 8 4 10 -5 4 -10
-6 -12 -4 -7 8 7 19 2 23 -9 6z"/>
<path d="M3510 2710 c0 -5 5 -10 10 -10 6 0 10 5 10 10 0 6 -4 10 -10 10 -5 0
-10 -4 -10 -10z"/>
<path d="M4408 2683 c7 -3 16 -2 19 1 4 3 -2 6 -13 5 -11 0 -14 -3 -6 -6z"/>
<path d="M594 2638 c1 -13 -7 -31 -17 -40 -14 -13 -17 -25 -12 -50 11 -58 16
-68 27 -62 6 4 7 27 3 59 -4 34 -2 55 4 60 13 7 15 55 2 55 -4 0 -8 -10 -7
-22z"/>
<path d="M1315 2600 c-3 -5 -3 -10 0 -10 4 0 0 -7 -9 -15 -8 -8 -19 -15 -25
-15 -6 0 -11 -4 -11 -10 0 -9 14 -12 36 -9 4 0 10 -5 15 -13 7 -10 12 -10 26
5 15 14 15 19 5 26 -8 5 -13 11 -13 15 5 33 -10 49 -24 26z"/>
<path d="M1465 2590 c3 -5 8 -10 11 -10 2 0 4 5 4 10 0 6 -5 10 -11 10 -5 0
-7 -4 -4 -10z"/>
<path d="M3646 2584 c-8 -22 -8 -24 7 -21 13 2 27 17 27 30 0 14 -28 7 -34 -9z"/>
<path d="M630 2580 c-5 -42 -4 -122 1 -126 10 -6 19 24 18 59 -1 37 -16 89
-19 67z"/>
<path d="M3654 2506 c-3 -8 -1 -23 5 -34 6 -11 7 -23 3 -27 -4 -5 -1 -5 6 -1
7 5 11 14 8 22 -3 8 -2 14 3 14 4 0 8 7 8 15 0 11 -4 12 -14 3 -11 -8 -12 -7
-7 6 3 9 3 16 0 16 -4 0 -9 -6 -12 -14z"/>
<path d="M1274 2478 c1 -13 6 -22 10 -21 23 6 26 10 21 26 -10 26 -36 21 -31
-5z"/>
<path d="M552 2460 c0 -14 2 -19 5 -12 2 6 2 18 0 25 -3 6 -5 1 -5 -13z"/>
<path d="M1303 2427 c-16 -9 -19 -16 -12 -29 10 -19 1 -51 -12 -42 -5 3 -9 -4
-9 -15 0 -23 16 -36 25 -21 3 5 1 10 -5 10 -7 0 -5 6 4 15 19 19 60 19 76 0 7
-8 17 -12 22 -9 5 3 1 15 -9 27 -10 11 -12 17 -4 12 9 -5 12 -3 9 6 -3 8 -11
14 -19 15 -50 4 -51 4 -46 24 3 11 4 20 4 20 -1 -1 -12 -6 -24 -13z"/>
<path d="M617 2390 c-14 -60 -17 -130 -6 -130 6 0 9 7 5 15 -3 8 0 15 5 15 7
0 9 11 7 25 -3 13 0 26 5 28 8 2 8 14 0 38 -10 33 -10 33 -16 9z"/>
<path d="M1407 2387 c3 -5 -1 -13 -8 -18 -9 -6 -1 -7 22 -4 28 5 38 2 43 -10
3 -9 10 -14 15 -10 6 3 8 12 5 19 -3 8 4 15 20 18 14 3 23 1 20 -3 -3 -5 -1
-9 5 -9 5 0 11 5 13 12 3 9 6 9 12 0 4 -7 2 -12 -4 -12 -6 0 -9 -4 -5 -9 3 -5
5 -208 5 -450 0 -280 4 -441 10 -441 6 0 10 169 10 464 l0 464 -85 0 c-51 -1
-82 -5 -78 -11z"/>
<path d="M3458 1923 l-3 -478 -343 -3 c-192 -1 -350 2 -359 7 -11 6 -21 4 -30
-4 -17 -18 -16 -25 2 -25 8 0 15 -6 15 -12 0 -9 4 -8 11 2 8 11 12 12 16 3 7
-18 24 -16 17 2 -5 13 30 15 285 15 300 0 297 0 291 -39 -1 -8 3 -17 9 -20 6
-4 12 -19 13 -34 2 -22 7 -27 23 -25 24 4 22 36 -3 56 -22 16 -28 62 -8 62 36
0 67 -20 66 -43 -3 -33 -1 -47 8 -46 20 3 42 -2 42 -11 0 -5 -8 -7 -17 -4 -15
5 -15 4 -3 -4 8 -6 18 -8 22 -6 13 8 0 58 -19 71 -9 7 -11 13 -5 13 16 0 15
16 0 31 -10 9 -13 117 -11 483 2 448 3 471 20 472 11 1 12 -1 3 -3 -13 -3 -15
-63 -15 -458 0 -250 3 -451 8 -446 4 4 6 206 5 449 -2 243 0 442 5 442 4 0 7
-12 7 -26 0 -20 3 -24 13 -17 6 6 29 9 49 7 36 -3 37 -2 28 21 -5 14 -8 25 -7
26 22 7 37 4 37 -7 0 -8 5 -14 11 -14 6 0 9 8 7 17 -2 14 -15 19 -52 21 -36 2
-47 0 -44 -10 5 -15 -20 -44 -30 -34 -3 4 -1 16 6 26 11 19 9 20 -28 20 l-40
0 -2 -477z m18 -498 c17 -16 14 -18 -10 -9 -9 3 -16 10 -16 15 0 13 9 11 26
-6z"/>
<path d="M3663 2387 c0 -7 -4 -20 -8 -29 -5 -14 -2 -18 14 -18 12 0 21 6 21
15 0 8 -6 15 -12 15 -10 0 -10 2 0 9 11 7 11 9 0 14 -8 3 -15 0 -15 -6z"/>
<path d="M1530 1920 l-5 -445 -2 403 c-2 256 -7 402 -13 402 -6 0 -10 -145
-10 -405 0 -255 4 -405 10 -405 13 0 1 -32 -18 -47 -9 -7 -12 -13 -6 -13 5 0
3 -4 -5 -9 -13 -8 -13 -14 -1 -38 7 -15 12 -34 11 -40 -1 -8 9 -13 24 -13 24
0 35 22 16 34 -5 3 -11 19 -13 36 -4 26 -2 29 15 24 12 -4 17 -2 13 4 -3 6 0
13 6 15 10 4 9 8 -2 16 -13 9 -13 11 2 11 9 0 20 -10 23 -21 5 -14 10 -18 14
-10 6 8 97 11 344 9 185 -2 337 0 337 5 0 4 9 7 19 7 11 0 23 5 27 12 5 7 2 9
-8 6 -8 -4 -15 0 -15 8 0 7 4 11 9 8 4 -3 8 90 8 205 0 142 -3 211 -11 211 -5
0 -7 5 -4 10 20 32 25 -8 25 -205 0 -179 2 -215 14 -215 8 0 16 -6 19 -12 2
-7 8 -9 13 -5 5 4 3 11 -3 15 -8 5 -14 72 -19 210 l-7 202 28 0 28 0 -7 -206
c-6 -167 -4 -205 6 -202 10 4 12 47 9 207 l-4 202 166 -3 c91 -2 163 0 160 5
-2 4 -76 7 -164 7 -104 0 -159 4 -159 10 0 7 55 10 164 8 90 -2 162 0 159 5
-2 4 -76 7 -164 7 -105 0 -159 4 -159 11 0 7 56 9 171 7 l172 -3 -2 -242 c-2
-166 1 -243 8 -243 8 0 11 80 11 250 l0 250 -240 0 -240 0 -2 -257 -3 -258
-347 -5 c-287 -4 -349 -3 -353 9 -3 9 -14 11 -31 7 -23 -6 -24 -5 -14 13 7 14
9 163 7 458 l-2 438 -5 -445z m787 3 c-3 -3 -11 -2 -17 2 -9 6 -9 10 1 16 14
8 27 -7 16 -18z m73 17 c0 -5 -11 -10 -25 -10 -14 0 -25 5 -25 10 0 6 11 10
25 10 14 0 25 -4 25 -10z m0 -30 c0 -5 -11 -10 -25 -10 -14 0 -25 5 -25 10 0
6 11 10 25 10 14 0 25 -4 25 -10z m-53 -382 c-2 -24 -4 -7 -4 37 0 44 2 63 4
43 2 -21 2 -57 0 -80z"/>
<path d="M1336 2324 c-3 -8 -1 -16 4 -19 5 -3 7 -12 3 -20 -5 -14 5 -15 45 -6
2 1 -3 8 -12 16 -8 9 -13 21 -10 29 3 7 -2 13 -10 13 -8 0 -17 -6 -20 -13z"/>
<path d="M1416 2332 c-7 -12 4 -52 15 -52 12 0 12 47 0 55 -5 3 -12 2 -15 -3z"/>
<path d="M642 2310 c0 -14 2 -19 5 -12 2 6 2 18 0 25 -3 6 -5 1 -5 -13z"/>
<path d="M1460 2301 c0 -32 16 -42 26 -16 4 8 12 15 20 15 8 0 14 5 14 10 0 6
-6 10 -14 10 -8 0 -21 3 -30 6 -13 5 -16 -1 -16 -25z"/>
<path d="M3634 2317 c-16 -9 -19 -17 -13 -32 4 -11 8 -14 8 -8 1 7 12 15 26
19 14 3 25 12 25 20 0 17 -18 17 -46 1z"/>
<path d="M1280 2291 c0 -5 7 -11 14 -14 10 -4 13 -1 9 9 -6 15 -23 19 -23 5z"/>
<path d="M3510 2291 c0 -12 29 -23 42 -15 6 4 5 10 -3 15 -18 11 -39 11 -39 0z"/>
<path d="M4348 2280 c-11 -27 -17 -90 -8 -90 4 0 6 -10 3 -22 -4 -17 1 -14 18
12 18 28 24 31 27 17 2 -9 7 -15 11 -12 10 5 7 -91 -3 -123 -4 -12 -2 -30 4
-39 11 -17 11 -17 6 0 -5 15 -2 17 17 13 12 -3 16 -3 10 0 -16 7 -17 40 -2 50
8 4 9 -1 4 -17 -5 -19 -4 -21 4 -9 11 15 6 65 -8 85 -4 6 -8 22 -9 36 -2 33
-20 82 -21 57 -1 -28 -19 -21 -24 10 -4 24 -4 24 -7 -8 -3 -34 -3 -34 -10 10
-3 26 -9 39 -12 30z m82 -162 c0 -19 -2 -20 -10 -8 -13 19 -13 30 0 30 6 0 10
-10 10 -22z"/>
<path d="M560 2265 c0 -6 4 -15 9 -20 4 -6 11 -27 14 -47 4 -29 2 -38 -9 -38
-12 0 -19 19 -15 43 2 14 -20 7 -25 -8 -8 -20 4 -85 16 -85 4 0 7 8 5 18 -1 9
0 11 2 5 3 -7 9 -13 14 -13 5 0 9 -9 9 -21 0 -11 5 -17 10 -14 6 3 10 20 10
36 0 22 4 28 13 23 8 -5 8 -3 -2 9 -7 9 -11 28 -9 42 3 14 2 25 -1 25 -4 0
-14 12 -23 28 -10 15 -18 22 -18 17z"/>
<path d="M605 2240 c3 -5 8 -10 11 -10 2 0 4 5 4 10 0 6 -5 10 -11 10 -5 0 -7
-4 -4 -10z"/>
<path d="M4340 2122 c0 -6 -7 -9 -15 -6 -10 4 -15 0 -15 -14 0 -12 4 -23 9
-26 9 -6 35 44 26 52 -3 3 -5 0 -5 -6z"/>
<path d="M626 2105 c-11 -30 -6 -40 11 -22 12 12 14 20 6 28 -7 7 -12 6 -17
-6z"/>
<path d="M562 2020 c18 -70 22 -78 33 -63 7 10 11 22 7 28 -3 5 4 2 16 -8 20
-18 20 -18 15 1 -2 11 0 30 7 42 6 12 9 24 6 27 -3 3 -10 -6 -15 -21 -10 -25
-31 -36 -31 -16 0 6 5 10 10 10 6 0 10 5 10 10 0 23 -20 8 -30 -22 l-10 -33 5
33 c3 20 1 31 -5 27 -6 -3 -11 0 -12 7 0 7 -2 18 -3 23 -2 6 -3 16 -4 23 0 6
-5 12 -10 12 -5 0 0 -36 11 -80z"/>
<path d="M4342 2050 c1 -22 5 -40 9 -40 5 0 15 -12 22 -26 11 -22 15 -24 20
-10 4 9 2 16 -3 16 -5 0 -7 7 -4 15 4 8 1 21 -5 29 -6 7 -8 16 -4 19 3 4 -2 9
-11 13 -9 3 -13 10 -10 15 3 5 0 9 -5 9 -6 0 -10 -18 -9 -40z"/>
<path d="M615 2050 c3 -5 8 -10 11 -10 2 0 4 5 4 10 0 6 -5 10 -11 10 -5 0 -7
-4 -4 -10z"/>
<path d="M4412 1981 c-7 -22 -16 -41 -20 -41 -7 0 -11 -20 -13 -67 -1 -14 -6
-20 -12 -16 -6 4 -8 0 -4 -10 3 -9 0 -18 -9 -21 -8 -3 -14 -17 -14 -31 0 -15
-4 -24 -10 -20 -5 3 -10 1 -10 -6 0 -6 -8 -18 -17 -25 -13 -9 -18 -25 -16 -60
1 -35 -1 -44 -9 -33 -8 11 -9 10 -4 -5 5 -13 2 -17 -9 -12 -17 6 -21 -9 -5
-19 6 -3 10 -11 10 -16 0 -6 -4 -7 -10 -4 -6 4 -7 -1 -3 -11 5 -13 3 -15 -7
-9 -10 6 -12 4 -7 -8 3 -9 2 -19 -3 -22 -6 -4 -10 -1 -10 5 0 6 -4 8 -10 5 -5
-3 -10 -11 -10 -16 0 -6 5 -7 10 -4 14 9 13 -8 -2 -23 -6 -6 -9 -14 -6 -17 6
-7 64 90 70 115 2 8 5 17 8 20 14 14 39 83 34 92 -5 7 -2 8 6 3 10 -6 12 -3 8
13 -4 12 -3 20 2 17 11 -7 21 22 13 42 -4 11 -3 14 5 9 12 -7 77 184 70 206
-2 6 -10 -8 -16 -31z m-106 -287 c-4 -9 -9 -15 -11 -12 -3 3 -3 13 1 22 4 9 9
15 11 12 3 -3 3 -13 -1 -22z"/>
<path d="M4330 1958 c0 -10 -5 -18 -11 -18 -6 0 -9 -14 -7 -32 2 -22 8 -32 17
-30 9 2 11 -3 6 -15 -16 -40 -15 -56 2 -23 18 32 12 57 -9 44 -4 -3 -8 5 -8
18 0 19 2 20 11 8 9 -12 10 -11 6 7 -3 12 -1 23 4 25 4 2 4 10 -1 18 -8 13
-10 12 -10 -2z"/>
<path d="M601 1942 c-17 -31 -12 -41 5 -12 14 23 15 24 10 3 -3 -13 -9 -32
-12 -43 -4 -12 -2 -20 5 -20 7 0 10 3 8 8 -3 4 -1 16 4 27 l9 20 -1 -20 c-1
-11 -1 -29 0 -40 2 -19 2 -19 12 -2 8 13 7 27 -2 50 -18 46 -26 52 -38 29z"/>
<path d="M610 1857 c0 -5 5 -18 12 -30 7 -12 13 -29 15 -38 1 -8 11 -35 22
-60 19 -40 26 -40 22 1 -2 13 -1 13 8 0 9 -12 11 -11 11 8 0 15 -4 21 -11 16
-9 -5 -10 1 -5 20 4 17 3 25 -3 22 -5 -3 -12 0 -15 6 -3 7 -3 -3 0 -22 5 -34
5 -35 -9 -10 -7 14 -12 35 -10 48 2 14 0 21 -6 18 -5 -4 -14 2 -20 11 -6 10
-11 14 -11 10z"/>
<path d="M710 1783 c0 -20 3 -22 18 -12 10 7 19 18 19 25 0 7 -9 12 -19 11
-12 -1 -18 -9 -18 -24z"/>
<path d="M4235 1800 c-3 -5 -8 -20 -10 -32 -3 -13 -12 -28 -20 -34 -18 -14
-19 -31 -2 -37 10 -4 10 -6 0 -6 -18 -1 -16 -41 1 -41 26 0 27 -18 3 -42 -13
-13 -27 -32 -32 -43 -11 -26 -15 -74 -6 -80 4 -2 7 12 7 32 -1 20 4 38 10 40
11 4 13 -24 3 -42 -3 -6 -6 -22 -7 -37 -2 -31 -35 -91 -45 -81 -4 3 -7 14 -7
23 0 9 -6 17 -13 17 -11 0 -11 -6 -3 -24 6 -12 14 -23 18 -23 4 0 5 -7 2 -15
-9 -22 -33 0 -27 24 3 10 0 22 -6 25 -16 10 -13 26 5 26 8 0 13 4 9 10 -8 13
-35 1 -35 -16 0 -8 -4 -14 -10 -14 -5 0 -7 -7 -4 -15 5 -12 10 -13 20 -4 11 9
14 8 14 -5 0 -9 -4 -16 -10 -16 -5 0 -10 -6 -10 -12 -1 -22 -47 -71 -59 -63
-9 5 -8 14 4 32 12 18 14 28 6 36 -6 6 -11 21 -11 34 0 13 -6 23 -12 23 -9 0
-12 -14 -11 -42 2 -71 -3 -78 -53 -78 -24 0 -44 -4 -44 -10 0 -14 87 -13 92 2
5 13 28 2 28 -13 0 -6 -3 -8 -7 -6 -5 3 -9 -6 -10 -20 -1 -24 0 -24 18 6 16
26 21 29 33 19 8 -7 12 -17 9 -22 -3 -4 -9 -3 -13 4 -11 17 -22 -4 -13 -26 4
-12 3 -15 -5 -10 -7 4 -12 3 -12 -3 0 -6 -6 -8 -13 -5 -8 3 -13 -4 -14 -18 -1
-13 -12 -31 -25 -42 -13 -10 -21 -20 -18 -21 3 -2 2 -7 -2 -11 -5 -4 -8 -2 -8
5 0 9 -5 7 -16 -3 -8 -9 -12 -21 -8 -27 4 -7 0 -9 -14 -5 -11 4 -23 2 -27 -4
-4 -6 -13 -9 -19 -7 -7 3 -18 -4 -24 -14 -7 -10 -8 -19 -3 -19 5 0 12 6 14 13
3 7 6 5 6 -5 1 -20 -23 -23 -61 -9 -23 9 -24 7 -24 -37 -1 -40 -4 -49 -25 -59
-13 -7 -18 -13 -11 -13 11 0 11 -2 0 -13 -25 -24 -71 -57 -79 -57 -20 0 -7 20
16 26 32 8 56 35 36 42 -9 3 -3 11 18 22 l33 17 -31 0 c-18 0 -27 -3 -21 -7 8
-5 7 -9 -4 -13 -10 -4 -13 -13 -9 -23 4 -12 3 -15 -6 -10 -6 4 -18 2 -26 -4
-8 -6 -35 -13 -60 -15 -25 -1 -48 -5 -51 -8 -11 -11 17 -46 38 -49 13 -2 22
-9 20 -16 -2 -10 2 -10 17 0 11 7 17 16 15 20 -3 4 1 8 9 8 44 0 371 299 359
328 -3 8 -1 13 4 9 9 -5 70 58 104 108 50 74 85 131 82 138 -1 4 2 7 7 7 5 0
8 18 6 40 -3 31 2 46 21 70 21 24 23 33 14 50 -6 11 -8 25 -5 30 3 5 1 11 -5
15 -5 3 -10 1 -10 -6 0 -7 -3 -9 -7 -5 -5 4 1 15 12 23 14 11 16 17 8 20 -15
5 -18 33 -4 33 5 0 11 -6 14 -12 3 -8 9 -2 15 14 6 14 20 29 31 33 24 7 27 21
9 27 -21 8 -38 -2 -38 -23 0 -10 -5 -19 -10 -19 -6 0 -8 11 -4 25 6 25 0 33
-11 15z m-125 -448 c0 -15 -2 -15 -10 -2 -13 20 -13 33 0 25 6 -3 10 -14 10
-23z m-16 -18 c3 -8 2 -12 -4 -9 -6 3 -10 10 -10 16 0 14 7 11 14 -7z m-9 -24
c3 -5 2 -10 -4 -10 -5 0 -13 5 -16 10 -3 6 -2 10 4 10 5 0 13 -4 16 -10z
m-185 -208 c0 -5 -14 -21 -31 -38 -29 -27 -30 -27 -18 -5 25 45 49 66 49 43z
m-100 -51 c0 -6 -5 -13 -11 -17 -6 -3 -9 -14 -6 -25 3 -10 -4 -25 -16 -36 -21
-17 -21 -17 -7 1 8 10 13 29 12 42 -2 13 -1 28 3 34 8 13 25 13 25 1z m23 -18
c-7 -3 -13 -12 -14 -21 0 -11 -2 -13 -6 -4 -6 15 17 46 26 36 3 -4 0 -9 -6
-11z m-199 -141 c-3 -32 -9 -35 -25 -15 -12 15 -12 16 1 9 8 -4 6 0 -4 8 -14
11 -22 13 -27 5 -4 -7 -9 -8 -13 -1 -8 13 11 20 45 18 21 -1 25 -6 23 -24z"/>
<path d="M799 1769 c0 -19 -2 -21 -7 -7 -7 17 -8 16 -20 -2 -8 -13 -8 -20 -1
-20 5 0 8 -4 5 -8 -3 -5 1 -9 9 -9 14 0 32 54 21 64 -3 4 -6 -5 -7 -18z"/>
<path d="M699 1701 c-17 -29 -8 -78 11 -66 7 4 6 13 -1 27 -8 15 -8 23 2 32 9
8 11 7 6 -6 -6 -18 42 -44 65 -35 8 3 6 6 -5 6 -10 1 -16 5 -12 10 3 5 1 12
-4 15 -5 3 -7 15 -4 26 3 11 0 20 -6 20 -6 0 -11 -5 -11 -11 0 -8 -4 -8 -13
-1 -9 8 -16 4 -28 -17z"/>
<path d="M4252 1675 c0 -16 2 -22 5 -12 2 9 2 23 0 30 -3 6 -5 -1 -5 -18z"/>
<path d="M735 1641 c-2 -5 4 -11 16 -14 16 -4 18 -11 13 -31 -3 -15 -2 -26 4
-26 5 0 12 14 16 31 3 17 10 28 16 24 5 -3 10 1 10 9 0 20 -5 20 -24 0 -9 -8
-16 -11 -16 -6 0 13 -28 23 -35 13z"/>
<path d="M4156 1624 c-8 -21 -8 -21 9 -21 8 0 15 9 15 19 0 22 -16 24 -24 2z"/>
<path d="M712 1613 c24 -49 33 -63 40 -63 5 0 4 9 -2 19 -5 11 -7 28 -4 38 5
15 4 15 -5 3 -7 -10 -11 -11 -11 -2 0 6 -5 12 -11 12 -6 0 -9 -3 -7 -7z"/>
<path d="M792 1593 c2 -10 -7 -27 -19 -38 l-23 -20 42 -67 c34 -54 47 -67 62
-62 13 4 17 2 13 -7 -2 -8 -10 -13 -16 -11 -7 1 -4 -8 6 -22 10 -14 26 -26 36
-26 9 0 17 -4 17 -8 0 -5 10 -13 22 -19 19 -8 20 -10 4 -16 -9 -4 -15 -3 -12
1 3 5 -1 9 -9 9 -11 0 -9 -7 6 -28 20 -29 49 -53 35 -30 -5 7 -1 18 9 25 15
11 16 15 4 34 -8 12 -22 25 -31 28 -10 3 -18 9 -18 14 0 5 -10 20 -22 34 -42
45 -46 53 -37 67 5 8 8 21 8 29 0 10 -2 11 -6 2 -2 -6 -9 -10 -14 -7 -5 4 -6
-2 -3 -12 5 -16 4 -16 -10 1 -12 15 -16 16 -16 5 0 -8 5 -20 12 -27 7 -7 9
-12 6 -12 -4 0 -16 13 -26 28 -23 32 -42 109 -24 98 6 -4 9 -13 5 -21 -3 -8
-1 -15 5 -15 5 0 10 20 10 45 1 25 -3 45 -9 45 -6 0 -9 -8 -7 -17z m162 -315
c-3 -4 -9 -8 -15 -8 -5 0 -9 4 -9 8 0 5 7 9 15 9 8 0 12 -4 9 -9z"/>
<path d="M880 1481 c0 -5 -3 -18 -7 -28 -6 -16 -5 -16 10 -4 19 15 23 41 7 41
-5 0 -10 -4 -10 -9z"/>
<path d="M920 1482 c0 -17 31 -72 41 -72 6 0 9 17 7 38 -2 30 -7 38 -25 40
-13 2 -23 -1 -23 -6z"/>
<path d="M1443 1483 c-16 -6 -17 -53 -2 -53 5 0 8 4 5 9 -3 5 4 11 15 14 12 3
19 11 17 18 -5 15 -18 19 -35 12z"/>
<path d="M2713 1475 c0 -8 4 -12 9 -9 5 3 6 10 3 15 -9 13 -12 11 -12 -6z"/>
<path d="M4014 1478 c-5 -7 -3 -8 5 -4 8 5 11 3 9 -6 -2 -7 2 -16 7 -18 6 -3
11 5 13 18 4 24 -21 32 -34 10z"/>
<path d="M3497 1465 c-18 -13 -17 -14 3 -20 26 -8 35 -2 23 18 -7 13 -11 13
-26 2z"/>
<path d="M4130 1471 c0 -11 31 -24 39 -16 3 3 -1 10 -9 15 -19 12 -30 12 -30
1z"/>
<path d="M2390 1460 c0 -5 5 -10 10 -10 6 0 10 5 10 10 0 6 -4 10 -10 10 -5 0
-10 -4 -10 -10z"/>
<path d="M901 1434 c0 -11 3 -14 6 -6 3 7 2 16 -1 19 -3 4 -6 -2 -5 -13z"/>
<path d="M2280 1405 c0 -14 -5 -25 -11 -25 -5 0 -7 -5 -3 -12 5 -8 2 -9 -9 -5
-9 3 -16 3 -16 -1 1 -4 1 -11 0 -17 -1 -6 -110 -9 -313 -7 -305 3 -339 6 -322
34 3 4 144 8 315 8 302 0 309 0 309 20 0 20 -7 20 -310 20 -269 0 -310 -2
-310 -15 0 -8 -9 -15 -20 -15 -11 0 -20 -3 -21 -7 0 -5 -2 -18 -5 -30 -4 -25
5 -30 24 -11 9 9 12 8 12 -5 0 -9 5 -18 10 -18 35 -5 617 -4 625 0 6 3 15 6
20 6 6 1 9 6 8 12 -3 12 54 39 63 30 3 -3 7 -17 8 -31 1 -19 6 -25 23 -24 14
2 20 8 18 19 -3 12 2 15 16 12 16 -4 19 0 19 27 0 29 -2 32 -22 25 -13 -3 -28
-7 -35 -7 -7 -1 -10 -5 -7 -10 3 -4 1 -8 -5 -8 -5 0 -13 9 -16 20 -3 11 -11
20 -17 20 -6 0 -6 -6 2 -15 11 -13 10 -14 -4 -9 -21 8 -21 31 2 37 13 4 11 5
-5 6 -18 1 -23 -4 -23 -24z m100 -29 c0 -2 -7 -9 -15 -16 -13 -11 -14 -10 -9
4 5 14 24 23 24 12z"/>
<path d="M2890 1409 c0 -5 -5 -7 -11 -4 -6 4 -16 0 -22 -8 -7 -8 -23 -18 -37
-21 -22 -5 -21 -4 5 10 27 13 27 14 5 10 -14 -3 -44 -8 -68 -12 -48 -7 -59
-18 -42 -39 10 -12 16 -12 34 -3 11 7 29 11 39 9 10 -1 24 3 32 9 8 6 23 9 35
5 13 -4 20 -2 20 7 0 10 46 12 235 10 231 -3 235 -2 235 18 0 20 -5 20 -230
20 -155 0 -230 -3 -230 -11z m-100 -37 c0 -5 -7 -9 -15 -9 -8 0 -12 4 -9 9 3
4 9 8 15 8 5 0 9 -4 9 -8z"/>
<path d="M920 1399 c0 -5 -6 -7 -12 -3 -9 5 -9 2 1 -9 18 -23 31 -21 31 3 0
11 -4 20 -10 20 -5 0 -10 -5 -10 -11z"/>
<path d="M1432 1347 c2 -15 8 -26 13 -25 12 3 8 29 -7 43 -6 7 -8 1 -6 -18z"/>
<path d="M2840 1329 c0 -13 35 -15 255 -14 197 0 255 3 255 13 0 9 -56 12
-247 12 -164 0 -243 -4 -233 -10 8 -5 10 -10 5 -10 -6 0 -16 5 -23 12 -9 9
-12 9 -12 -3z"/>
<path d="M1006 1321 c-3 -5 -3 -16 0 -24 3 -9 0 -25 -6 -37 -9 -16 -9 -25 -1
-33 8 -8 11 -8 11 1 0 7 5 12 11 12 8 0 7 -5 -1 -15 -12 -14 -15 -14 -30 0
-10 9 -20 12 -23 8 -3 -5 17 -30 44 -57 27 -26 49 -51 49 -56 0 -13 29 -20 36
-8 5 7 3 8 -5 4 -8 -5 -14 0 -18 13 -3 11 -9 19 -13 16 -5 -3 -11 -1 -15 4 -3
6 5 8 20 5 29 -5 34 16 10 36 -8 7 -15 9 -15 5 0 -4 -7 -1 -16 6 -15 12 -16
11 -10 -11 7 -24 6 -24 -8 -6 -14 17 -14 21 -1 36 8 9 12 20 9 23 -4 4 1 9 10
13 18 7 22 44 5 44 -5 0 -7 6 -3 13 4 6 4 9 -1 5 -4 -4 -14 -3 -21 3 -8 6 -14
6 -18 0z m18 -17 c3 -8 2 -12 -4 -9 -6 3 -10 10 -10 16 0 14 7 11 14 -7z"/>
<path d="M1070 1315 c0 -8 7 -15 15 -15 17 0 20 -25 5 -35 -5 -3 -10 -11 -10
-16 0 -6 5 -7 12 -3 6 4 8 3 5 -4 -9 -13 2 -42 15 -42 6 0 8 9 5 20 -3 11 -1
18 4 14 17 -10 3 51 -16 74 -23 26 -35 28 -35 7z"/>
<path d="M3840 1215 c0 -25 5 -45 10 -45 6 0 10 20 10 45 0 25 -4 45 -10 45
-5 0 -10 -20 -10 -45z"/>
<path d="M3932 1220 c-8 -13 -8 -20 -2 -20 6 0 13 7 17 15 9 24 -1 27 -15 5z"/>
<path d="M3971 1232 c-2 -20 -51 -62 -73 -62 -11 0 -17 -4 -13 -9 3 -6 -3 -15
-14 -20 -14 -8 -20 -8 -23 1 -3 8 -7 6 -11 -4 -9 -25 52 -14 70 12 8 11 20 20
26 20 19 0 49 40 44 58 -3 9 -5 11 -6 4z"/>
<path d="M1190 1148 c0 -22 11 -28 38 -21 13 3 22 13 22 24 0 14 -7 18 -30 16
-21 -1 -30 -7 -30 -19z"/>
<path d="M3740 1150 c0 -5 20 -10 45 -10 25 0 45 5 45 10 0 6 -20 10 -45 10
-25 0 -45 -4 -45 -10z"/>
<path d="M1086 1143 c-10 -10 -7 -25 3 -18 14 8 21 -9 11 -25 -9 -14 2 -27
109 -119 32 -28 61 -48 65 -44 3 3 6 0 6 -8 0 -11 2 -11 10 1 8 12 10 11 10
-6 0 -16 20 -34 73 -67 39 -25 77 -50 82 -54 21 -19 38 -26 31 -15 -4 7 -2 10
7 6 17 -6 43 21 27 31 -5 3 -10 1 -10 -4 0 -20 -21 -11 -52 22 -17 17 -28 27
-24 21 3 -7 -3 -14 -14 -17 -11 -3 -20 -1 -20 3 0 5 -9 12 -20 15 -11 3 -20
13 -20 21 0 13 2 13 16 0 8 -9 23 -16 32 -15 11 0 9 4 -8 11 -14 6 -20 12 -13
15 7 2 22 -1 35 -8 23 -12 23 -12 4 10 -19 21 -10 31 11 10 7 -7 11 -3 11 15
0 32 -25 34 -62 5 -14 -11 -31 -17 -36 -14 -6 4 -19 1 -28 -7 -15 -12 -16 -11
-4 4 11 14 10 19 -9 37 -25 23 -35 26 -44 11 -8 -14 -44 20 -38 36 3 8 1 14
-5 14 -6 0 -12 -6 -14 -12 -3 -7 -7 -3 -10 9 -4 13 0 27 8 34 12 9 13 9 9 -3
-4 -9 1 -18 9 -21 9 -4 16 -13 16 -22 0 -18 26 -20 36 -3 4 7 3 8 -4 4 -7 -4
-14 6 -20 26 -6 23 -15 34 -33 38 -13 3 -28 15 -33 26 -9 21 -10 21 -32 -5
-19 -21 -23 -23 -24 -9 0 12 -5 15 -17 11 -11 -4 -14 -3 -9 6 5 8 18 10 32 7
19 -5 24 -2 24 14 0 11 -6 21 -12 22 -7 0 -17 2 -23 2 -5 1 -15 5 -21 8 -6 4
-14 5 -18 1z m107 -99 c-7 -18 -27 -18 -42 0 -10 11 -8 16 6 24 22 13 44 -3
36 -24z m154 -149 c0 -8 -4 -12 -9 -9 -5 3 -6 10 -3 15 9 13 12 11 12 -6z
m108 -65 c3 -6 -1 -7 -9 -4 -18 7 -21 14 -7 14 6 0 13 -4 16 -10z"/>
<path d="M1165 1059 c-9 -14 -2 -20 14 -10 8 6 9 11 3 15 -6 3 -14 1 -17 -5z"/>
<path d="M1254 1106 c-8 -22 3 -49 19 -43 6 2 12 14 12 27 0 27 -22 39 -31 16z"/>
<path d="M3680 1056 c0 -50 -6 -54 -72 -51 -35 2 -48 -2 -48 -11 0 -8 11 -14
24 -14 14 0 28 -4 31 -10 10 -15 19 -12 53 18 26 24 32 36 32 70 0 23 -4 42
-10 42 -5 0 -10 -20 -10 -44z"/>
<path d="M1420 995 c0 -9 5 -15 11 -13 6 2 11 8 11 13 0 5 -5 11 -11 13 -6 2
-11 -4 -11 -13z"/>
<path d="M1323 985 c2 -19 24 -32 59 -34 12 -1 15 4 11 15 -3 8 -15 14 -27 12
-11 -2 -26 4 -33 12 -10 13 -11 12 -10 -5z"/>
<path d="M3517 983 c-15 -14 -6 -34 13 -31 12 2 20 8 18 13 -1 6 -9 9 -16 7
-8 -2 -11 1 -7 7 7 12 2 15 -8 4z"/>
<path d="M1560 842 c0 -6 -8 -9 -17 -6 -15 5 -16 4 -3 -5 16 -11 40 3 27 16
-4 3 -7 1 -7 -5z"/>
<path d="M1732 833 c2 -10 10 -18 18 -18 22 0 18 29 -3 33 -14 3 -18 -1 -15
-15z"/>
<path d="M3360 835 c0 -8 7 -15 15 -15 8 0 15 7 15 15 0 8 -7 15 -15 15 -8 0
-15 -7 -15 -15z"/>
<path d="M1580 823 c0 -15 -7 -24 -17 -25 -10 0 -23 -2 -30 -2 -7 -1 -18 -7
-25 -15 -10 -10 -10 -12 0 -7 6 4 12 3 12 -3 0 -21 390 -191 439 -191 4 0 16
7 27 16 16 13 16 15 2 10 -10 -3 -18 -1 -18 5 0 6 -4 7 -10 4 -18 -11 -50 -14
-50 -4 0 5 -10 10 -22 10 -19 1 -18 3 7 9 29 8 28 9 -10 8 -70 0 -85 2 -85 11
0 5 10 7 23 4 21 -4 21 -3 -3 11 -14 8 -26 10 -28 5 -2 -5 -13 -9 -25 -9 -16
0 -18 3 -8 9 9 6 10 11 2 15 -6 4 -9 12 -6 17 4 5 -2 9 -12 9 -15 0 -16 2 -3
10 13 8 13 11 1 22 -10 10 -12 10 -7 1 4 -7 2 -13 -3 -13 -6 0 -11 6 -11 14 0
16 -24 28 -35 18 -4 -4 -35 -7 -70 -7 -58 0 -62 2 -53 18 13 25 37 32 59 19
22 -14 63 -16 54 -3 -3 5 -1 12 5 16 21 13 0 22 -41 18 -28 -3 -45 0 -50 9 -6
9 -9 6 -9 -9z m63 -86 c-3 -5 3 -6 14 -3 14 4 19 1 20 -14 1 -11 -4 -20 -10
-20 -16 0 -45 19 -32 21 6 1 -8 7 -30 14 l-40 13 42 -1 c23 -1 39 -5 36 -10z
m64 -49 c-3 -8 -6 -5 -6 6 -1 11 2 17 5 13 3 -3 4 -12 1 -19z m38 3 c3 -5 1
-12 -4 -15 -5 -3 -11 1 -15 9 -6 16 9 21 19 6z m222 -97 c-3 -3 -12 -4 -19 -1
-8 3 -5 6 6 6 11 1 17 -2 13 -5z"/>
<path d="M3400 830 c0 -5 5 -10 10 -10 6 0 10 5 10 10 0 6 -4 10 -10 10 -5 0
-10 -4 -10 -10z"/>
<path d="M3468 826 c3 -5 -2 -6 -12 -3 -10 4 -19 1 -23 -9 -3 -8 -12 -13 -19
-10 -8 3 -14 -1 -14 -9 0 -8 -6 -15 -12 -16 -36 -2 -65 -7 -83 -13 -11 -3 -2
3 20 14 22 11 34 20 27 20 -7 0 -11 4 -8 8 3 5 -14 6 -36 3 -28 -4 -46 -14
-56 -30 -16 -23 -16 -24 8 -17 24 7 24 6 6 -8 -11 -9 -31 -16 -45 -16 -21 0
-23 -2 -11 -10 11 -7 11 -10 2 -10 -8 0 -12 -9 -10 -22 2 -17 -2 -21 -27 -23
-16 -1 -38 2 -48 7 -10 5 -39 6 -65 2 -41 -7 -44 -9 -22 -15 37 -10 52 -10 45
1 -3 6 1 10 9 10 8 0 17 -9 21 -20 6 -19 8 -19 37 -4 16 8 32 13 35 10 4 -3
-9 -12 -27 -20 -21 -9 -28 -15 -19 -19 8 -3 -1 -3 -18 0 -23 4 -33 2 -33 -7 0
-8 -3 -10 -7 -7 -3 4 -13 1 -22 -7 -9 -8 -32 -19 -51 -24 -19 -6 -28 -11 -19
-11 26 -2 239 69 239 79 0 12 -12 13 -26 3 -5 -5 -3 -1 6 7 8 8 16 23 16 33 3
35 4 40 11 34 3 -4 13 -1 22 6 21 17 91 41 98 33 3 -3 -5 -10 -18 -15 -22 -9
-22 -10 -3 -10 11 -1 24 3 30 8 5 6 16 5 27 -3 16 -12 16 -14 2 -20 -9 -3 -13
-2 -10 4 3 6 -1 10 -10 10 -9 0 -13 -5 -10 -10 3 -6 -2 -13 -12 -16 -10 -3
-26 -10 -35 -15 -12 -6 -18 -6 -18 1 0 5 15 14 33 19 30 9 31 9 5 10 -14 1
-35 4 -45 7 -15 5 -16 4 -3 -6 11 -8 12 -13 3 -16 -7 -3 -9 -12 -6 -21 5 -13
0 -14 -28 -9 -19 3 -29 3 -22 0 7 -3 9 -12 6 -20 -7 -19 -7 -19 93 27 103 47
258 138 250 147 -3 3 -15 -3 -26 -13 -11 -10 -23 -15 -27 -11 -4 4 -1 11 6 15
8 5 -4 8 -32 7 -25 0 -42 -5 -39 -10z m30 -12 c-15 -8 -25 -20 -22 -27 5 -14
-45 -47 -63 -40 -13 5 -6 33 8 33 4 0 25 11 45 25 20 14 42 25 48 25 6 -1 -1
-7 -16 -16z m17 -14 c-3 -5 -12 -10 -18 -10 -7 0 -6 4 3 10 19 12 23 12 15 0z"/>
<path d="M3445 780 c-3 -5 -2 -10 4 -10 5 0 13 5 16 10 3 6 2 10 -4 10 -5 0
-13 -4 -16 -10z"/>
<path d="M1884 681 c3 -5 -2 -12 -12 -17 -12 -5 -1 -9 37 -15 29 -4 56 -11 60
-17 9 -14 46 -23 65 -16 12 5 14 10 6 20 -7 7 -19 10 -27 7 -11 -4 -14 -2 -9
5 5 8 2 10 -9 6 -11 -4 -18 0 -21 12 -4 15 -16 20 -50 22 -25 1 -43 -2 -40 -7z"/>
<path d="M2020 675 c0 -12 22 -13 95 -6 l30 3 -35 8 c-22 5 -40 5 -47 -2 -8
-6 -13 -6 -13 -1 0 5 -7 10 -15 10 -8 0 -15 -6 -15 -12z"/>
<path d="M2880 682 c0 -5 7 -17 16 -28 8 -10 12 -13 8 -5 -5 9 -3 12 4 7 7 -4
12 -14 12 -22 0 -8 9 -15 20 -15 39 -3 45 -5 42 -18 -2 -10 4 -12 20 -7 13 3
27 6 31 6 4 0 3 9 -3 21 -7 11 -14 18 -17 15 -3 -3 -12 2 -21 10 -8 9 -25 14
-38 11 -14 -2 -31 3 -43 14 -22 21 -31 24 -31 11z"/>
<path d="M2720 669 c0 -5 5 -7 10 -4 6 3 10 8 10 11 0 2 -4 4 -10 4 -5 0 -10
-5 -10 -11z"/>
<path d="M2169 651 c7 -5 10 -14 7 -20 -4 -6 -2 -11 3 -11 6 0 10 -6 9 -12 -2
-8 6 -12 21 -10 17 1 22 -2 17 -13 -3 -8 -1 -15 4 -15 6 0 10 2 10 4 0 2 3 11
6 19 3 9 -3 16 -16 20 -23 6 -19 27 6 27 8 0 14 5 14 10 0 6 -21 10 -47 10
-31 0 -43 -3 -34 -9z"/>
<path d="M2785 650 c-3 -5 -3 -10 2 -11 65 -8 93 -4 93 12 0 12 -87 11 -95 -1z"/>
<path d="M2080 631 c0 -11 25 -21 56 -21 13 0 23 -5 22 -11 -2 -6 3 -14 10
-16 11 -4 12 -1 3 16 -7 11 -17 21 -24 21 -7 0 -6 4 3 10 11 7 4 10 -27 10
-24 0 -43 -4 -43 -9z"/>
<path d="M2716 624 c-8 -22 -8 -23 12 -18 9 3 27 -4 39 -15 24 -23 80 -41 69
-22 -9 15 -4 14 43 -5 31 -12 44 -13 58 -4 17 10 17 11 -2 6 -11 -3 -27 -1
-35 4 -12 7 -10 11 10 19 22 9 23 10 5 11 -11 1 -35 1 -52 0 -42 -2 -75 9 -67
21 4 7 -8 8 -31 3 -27 -5 -36 -4 -31 5 4 6 3 11 -2 11 -6 0 -13 -7 -16 -16z
m104 -40 c0 -2 -7 -4 -15 -4 -8 0 -15 4 -15 10 0 5 7 7 15 4 8 -4 15 -8 15
-10z"/>
<path d="M2950 589 c18 -34 21 -36 17 -9 -2 13 -9 26 -16 28 -10 3 -10 0 -1
-19z"/>
<path d="M2055 585 l30 -13 -34 -1 c-42 -1 -38 -7 9 -15 19 -3 69 -13 110 -21
88 -19 473 -28 560 -14 30 5 77 11 105 14 27 4 51 8 54 10 10 10 -33 17 -48 8
-9 -5 -27 -8 -40 -6 -13 2 -29 -1 -35 -6 -7 -6 -21 -10 -31 -10 -11 0 -110 -1
-220 -2 -110 -1 -216 2 -235 6 -32 7 -33 8 -14 22 17 14 16 15 -20 8 -26 -4
-41 -2 -46 5 -6 9 -9 9 -14 1 -5 -7 4 -14 24 -17 47 -10 28 -16 -25 -8 -32 4
-43 9 -34 15 11 7 10 9 -3 9 -10 0 -18 -5 -18 -10 0 -6 -8 -5 -20 2 -11 7 -20
17 -20 22 0 4 7 3 15 -4 12 -10 19 -10 27 -2 9 9 8 12 -2 13 -8 0 -35 2 -60 4
l-45 3 30 -13z"/>
<path d="M1990 580 c-8 -5 -10 -10 -5 -10 6 0 17 5 25 10 8 5 11 10 5 10 -5 0
-17 -5 -25 -10z"/>
<path d="M2735 560 c-8 -13 5 -13 25 0 13 8 13 10 -2 10 -9 0 -20 -4 -23 -10z"/>
</g>
</svg>
