<?xml version="1.0" standalone="no"?>
<!DOCTYPE svg PUBLIC "-//W3C//DTD SVG 20010904//EN"
 "http://www.w3.org/TR/2001/REC-SVG-20010904/DTD/svg10.dtd">
<svg version="1.0" xmlns="http://www.w3.org/2000/svg"
 width="512.000000pt" height="512.000000pt" viewBox="0 0 512.000000 512.000000"
 preserveAspectRatio="xMidYMid meet">

<g transform="translate(0.000000,512.000000) scale(0.100000,-0.100000)"
fill="#000000" stroke="none">
<path d="M1512 4939 c-652 -35 -1183 -170 -1306 -332 -55 -72 -44 -132 38
-204 140 -123 492 -220 1016 -278 197 -23 810 -31 1035 -16 565 40 984 134
1179 265 76 51 106 94 106 153 0 38 -6 50 -45 92 -213 227 -1113 370 -2023
320z"/>
<path d="M170 3825 c0 -466 -1 -457 60 -509 157 -132 558 -244 1080 -303 222
-25 917 -25 1140 0 547 61 962 184 1090 323 l40 44 0 435 c0 239 -2 435 -5
435 -3 0 -27 -14 -55 -31 -215 -132 -683 -240 -1215 -279 -181 -13 -680 -13
-860 0 -515 38 -941 135 -1193 271 -41 21 -75 39 -78 39 -2 0 -4 -191 -4 -425z"/>
<path d="M170 2720 c0 -490 -4 -463 85 -531 204 -154 704 -267 1343 -305 l112
-7 0 160 c0 151 1 162 26 211 14 28 43 66 65 83 77 60 54 59 956 59 l823 0 0
375 c0 206 -2 375 -5 375 -3 0 -24 -12 -46 -26 -186 -117 -589 -220 -1054
-270 -204 -21 -762 -30 -991 -15 -572 38 -1080 157 -1286 303 l-28 19 0 -431z"/>
<path d="M1925 2208 c-46 -26 -44 8 -45 -1010 0 -531 3 -974 6 -983 18 -47
-34 -45 1534 -45 l1472 0 29 29 29 29 0 967 0 967 -29 29 -29 29 -1474 0
c-1089 -1 -1478 -4 -1493 -12z m793 -458 c34 -18 77 -49 94 -69 44 -50 79
-133 85 -201 5 -53 3 -61 -20 -84 -18 -18 -37 -26 -60 -26 -50 0 -75 26 -87
89 -13 70 -40 111 -88 139 -152 85 -320 -98 -221 -242 33 -49 71 -67 156 -77
137 -15 238 -84 291 -198 23 -47 27 -70 27 -141 0 -76 -3 -92 -33 -152 -36
-73 -86 -123 -161 -160 -67 -33 -215 -33 -282 0 -112 55 -187 162 -197 277 -4
58 -2 65 21 89 18 18 37 26 60 26 50 0 75 -26 87 -89 19 -102 81 -161 170
-161 143 0 222 169 128 276 -42 47 -60 55 -145 65 -187 21 -310 145 -321 323
-7 124 53 241 158 304 75 45 103 52 195 49 69 -3 89 -8 143 -37z m845 6 c70
-34 139 -110 166 -182 20 -51 21 -76 21 -379 0 -298 -2 -329 -19 -376 l-20
-51 21 -29 c28 -38 27 -83 -2 -114 -30 -32 -84 -34 -116 -4 l-21 20 -64 -21
c-195 -66 -394 41 -444 238 -25 95 -17 645 9 716 27 71 116 161 191 192 83 34
196 30 278 -10z m504 10 l28 -24 3 -486 3 -486 217 0 c236 0 257 -4 280 -54
17 -33 9 -69 -20 -96 -21 -19 -34 -20 -309 -20 -275 0 -287 1 -313 21 l-26 20
0 554 0 554 26 20 c35 28 77 26 111 -3z"/>
<path d="M3345 1606 c-40 -18 -80 -63 -94 -105 -7 -22 -11 -130 -11 -306 0
-176 4 -284 11 -306 23 -69 92 -119 164 -119 39 0 42 5 19 31 -18 20 -21 67
-6 96 6 11 26 26 43 33 29 12 36 11 71 -7 l38 -21 0 294 c0 329 -2 342 -65
389 -43 34 -122 44 -170 21z"/>
<path d="M172 1634 l3 -396 51 -47 c178 -163 737 -300 1341 -328 l143 -6 0
425 0 424 -192 12 c-342 21 -605 59 -853 122 -180 46 -292 86 -404 146 -46 24
-85 44 -87 44 -3 0 -3 -178 -2 -396z"/>
</g>
</svg>
