<svg id="10015.io" viewBox="0 0 480 480" xmlns="http://www.w3.org/2000/svg" xmlns:xlink="http://www.w3.org/1999/xlink" >
	<path fill="#474bff" d="M458.5,273Q443,306,433,339.5Q423,373,392.5,390Q362,407,333.5,423Q305,439,272.5,458Q240,477,209.5,452Q179,427,148.5,417.5Q118,408,87.5,390.5Q57,373,56,336.5Q55,300,51,270Q47,240,49.5,209.5Q52,179,58,145.5Q64,112,87.5,87.5Q111,63,140,42Q169,21,204.5,12Q240,3,274.5,14.5Q309,26,332.5,53.5Q356,81,395,90Q434,99,431.5,139Q429,179,451.5,209.5Q474,240,458.5,273Z" />
</svg>